<?xml version="1.0" encoding="utf-8"?>
<!-- Generator: Adobe Illustrator 16.0.0, SVG Export Plug-In . SVG Version: 6.00 Build 0)  -->
<!DOCTYPE svg PUBLIC "-//W3C//DTD SVG 1.1//EN" "http://www.w3.org/Graphics/SVG/1.1/DTD/svg11.dtd">
<svg version="1.1" id="logo_xA0_Imagen_1_" xmlns="http://www.w3.org/2000/svg" xmlns:xlink="http://www.w3.org/1999/xlink" x="0px"
	 y="0px" width="900px" height="792px" viewBox="0 0 900 792" enable-background="new 0 0 900 792" xml:space="preserve">
<path fill-rule="evenodd" clip-rule="evenodd" fill="#FCFDFD" d="M302.163,723.038c0.769,3.106,2.439,6.313-1.007,8.945
	C300.494,728.89,302.208,726.063,302.163,723.038z"/>
<path fill-rule="evenodd" clip-rule="evenodd" fill="#FCFDFD" d="M301.045,737.008c0.29,0.522,0.614,1.031,0.841,1.58
	c0.045,0.111-0.283,0.375-0.439,0.568c-0.176-0.436-0.352-0.872-0.527-1.309C300.771,737.539,300.813,737.26,301.045,737.008z"/>
<path fill-rule="evenodd" clip-rule="evenodd" fill="#7F98B1" d="M239.47,724.47c0.104,0.255,0.231,0.504,0.291,0.769
	c0.012,0.056-0.226,0.168-0.348,0.253c-0.105-0.257-0.233-0.51-0.297-0.776C239.104,724.664,239.345,724.554,239.47,724.47z"/>
<g>
	<path fill-rule="evenodd" clip-rule="evenodd" fill="#9FCFFD" d="M250,793c-11.941-6.321-21.638-15.524-31.76-24.263
		c-10.606-9.155-20.033-19.405-29.469-29.671c-8.407-9.147-16.144-18.873-23.085-29.165c-10.462-15.512-21.214-30.856-30.571-47.071
		c-9.957-17.255-19.261-34.872-28.492-52.537c-18.639-35.669-33.4-72.909-46.558-110.861c-7-20.191-14.937-40.075-21.414-60.429
		c-8.611-27.06-15.072-54.729-20.62-82.583c-3.122-15.677-6.132-31.383-8.735-47.151c-1.8-10.904-2.855-21.934-4.171-32.916
		c-1.021-8.519-1.936-17.049-2.883-25.576c-0.325-2.922-0.735-5.226,3.946-3.895c11.041,3.138,22.275,5.589,33.381,8.509
		c1.82,0.478,3.635,0.327,5.39,0.755c3.354,0.817,7.754,3.532,9.771,2.292c3.684-2.267,5.978-6.817,8.799-10.455
		c7.809-10.068,15.58-20.165,23.39-30.231c1.724-2.223,3.57-4.351,5.318-6.555c1.227-1.548,1.454-2.771,0.037-4.749
		c-9.742-13.596-21.817-24.912-34.064-36.151c-7.924-7.272-16.909-13.333-24.145-21.366c0-0.286,0-0.572,0-0.858
		c4.189-2.737,9.151-2.424,13.757-3.53c17.161-4.12,34.279-8.417,51.436-12.553c25.33-6.107,50.747-11.867,76-18.27
		c24.629-6.245,49.368-12.021,74.022-18.131c26.088-6.464,52.189-12.895,78.304-19.248c29.802-7.251,59.516-14.861,89.454-21.572
		c20.115-4.509,40.007-10.005,60.039-14.896c35.573-8.685,71.23-17.03,106.74-25.967c13.586-3.42,27.477-5.716,40.718-10.492
		c1.811-0.652,3.662-0.432,5.27,0.654c6.304,4.261,13.119,7.96,17.431,14.555c1.585,2.425,4.453,2.666,6.401,4.555
		c8.362,8.11,15.973,16.921,23.432,25.804c12.87,15.328,25.4,30.939,36.836,47.423c10.785,15.546,20.965,31.439,30.1,47.997
		c3.852,6.981,7.911,13.908,11.039,21.218c9.827,22.96,19.797,45.854,29.172,69.018c12.521,30.94,21.182,62.966,29.027,95.257
		c6.354,26.153,11.51,52.569,15.732,79.169c2.773,17.475,5.191,34.908,6.335,52.635c1.516,23.48,5.117,46.916,3.368,70.449
		c-1.55,20.851-1.407,42.115-9.694,61.983c-2.371,5.686-4.888,11.313-8.44,16.34c-2.921,4.136-6.93,6.733-11.902,8.495
		c-43.138,15.277-87.651,26.113-130.957,40.841c-39.099,13.297-78.306,26.275-117.438,39.473
		c-43.373,14.626-86.726,29.313-130.069,44.028c-26.379,8.956-52.572,18.502-79.151,26.816
		c-12.911,4.038-25.516,8.962-38.604,12.599c-10.858,3.018-21.532,7.087-32.423,10.28C270,793,260,793,250,793z M59.731,154.954
		c1.363,1.124,1.991,1.644,2.622,2.16c17.322,14.18,32.899,30.017,46.096,48.159c1.708,2.348,2.023,3.903,0.09,6.366
		c-15.403,19.621-30.684,39.338-45.908,59.1c-1.603,2.081-2.987,2.236-5.464,1.616c-12.226-3.063-24.583-5.611-36.776-8.789
		c-3.507-0.914-3.58,0.232-3.394,2.886c0.569,8.144,1.872,16.186,3.086,24.246c1.792,11.899,2.571,24.02,5.288,35.694
		c5.064,21.768,8.47,43.885,14.576,65.44c4.804,16.962,8.884,34.122,14.266,50.937c13.491,42.153,28.238,83.807,46.826,124.045
		c23.997,51.947,50.641,102.347,84.951,148.377c16.252,21.804,33.594,42.633,55.964,58.497c12.925,9.167,26.639,15.765,42.102,4.769
		c0.641-0.455,1.581-0.476,2.369-0.737c44.695-14.875,89.375-29.798,134.087-44.622c62.545-20.737,125.113-41.402,187.673-62.095
		c65.598-21.698,131.201-43.382,196.771-65.165c1.535-0.51,3.326-0.71,4.469-2.616c3.214-5.356,6.691-10.544,8.505-16.608
		c5.046-16.872,6.371-34.311,6.876-51.72c0.732-25.223,0.025-50.43-2.671-75.591c-1.947-18.177-4.293-36.27-6.998-54.347
		c-3.468-23.178-8.206-46.071-13.794-68.8c-9.433-38.364-20.764-76.134-35.387-112.886c-16.045-40.325-35.179-79.056-59.205-115.248
		c-21.738-32.746-47.222-62.255-77.162-87.837c-2.73-2.332-5.133-3.369-8.839-2.205c-6.136,1.929-12.483,3.183-18.743,4.714
		c-50.708,12.404-101.41,24.83-152.125,37.204c-70.985,17.321-141.975,34.627-212.973,51.894
		c-40.412,9.828-80.854,19.536-121.268,29.354C97.308,145.601,79.008,150.189,59.731,154.954z"/>
	<path fill-rule="evenodd" clip-rule="evenodd" fill="#CAE4FE" d="M34.066,148.071c0,0.286,0,0.572,0,0.858
		C33.257,148.644,33.256,148.357,34.066,148.071z"/>
	<path fill-rule="evenodd" clip-rule="evenodd" fill="#020202" d="M59.731,154.954c19.277-4.765,37.577-9.354,55.909-13.808
		c40.415-9.818,80.856-19.526,121.268-29.354c70.999-17.267,141.988-34.572,212.973-51.894
		c50.715-12.374,101.417-24.8,152.125-37.204c6.26-1.531,12.607-2.785,18.743-4.714c3.706-1.164,6.108-0.127,8.839,2.205
		c29.94,25.582,55.424,55.091,77.162,87.837c24.026,36.192,43.16,74.923,59.205,115.248c14.623,36.752,25.954,74.521,35.387,112.886
		c5.588,22.729,10.326,45.622,13.794,68.8c2.705,18.077,5.051,36.17,6.998,54.347c2.696,25.161,3.403,50.368,2.671,75.591
		c-0.505,17.409-1.83,34.848-6.876,51.72c-1.813,6.064-5.291,11.252-8.505,16.608c-1.143,1.906-2.934,2.106-4.469,2.616
		c-65.57,21.783-131.174,43.467-196.771,65.165c-62.56,20.692-125.128,41.357-187.673,62.095
		c-44.712,14.824-89.392,29.747-134.087,44.622c-0.788,0.262-1.729,0.282-2.369,0.737c-15.463,10.996-29.176,4.398-42.102-4.769
		c-22.37-15.864-39.711-36.693-55.964-58.497c-34.31-46.03-60.954-96.43-84.951-148.377
		c-18.588-40.238-33.334-81.892-46.826-124.045c-5.382-16.814-9.462-33.975-14.266-50.937c-6.106-21.556-9.512-43.673-14.576-65.44
		c-2.716-11.675-3.495-23.795-5.288-35.694c-1.214-8.061-2.517-16.103-3.086-24.246c-0.186-2.653-0.113-3.8,3.394-2.886
		c12.193,3.178,24.55,5.726,36.776,8.789c2.477,0.62,3.861,0.465,5.464-1.616c15.224-19.762,30.505-39.479,45.908-59.1
		c1.933-2.463,1.617-4.019-0.09-6.366c-13.196-18.143-28.773-33.979-46.096-48.159C61.722,156.598,61.094,156.078,59.731,154.954z
		 M302.163,723.038c0.045,3.024-1.669,5.852-1.007,8.945c-0.037,1.675-0.074,3.35-0.111,5.024c-0.231,0.252-0.273,0.531-0.126,0.84
		c-1.51,4.004-2.177,8.179-2.952,12.698c6.561-2.156,12.659-4.149,18.751-6.165c108.151-35.776,216.3-71.563,324.454-107.332
		c49.756-16.455,99.52-32.887,149.298-49.273c2.971-0.979,4.94-2.213,6.2-5.52c3.916-10.285,4.412-21.07,5.623-31.771
		c0.983-3.801,0.668-7.666,0.566-11.52c0.206-5.015,0.412-10.029,0.618-15.043c0.822-3.613,0.565-7.271,0.351-10.908
		c-1.172-19.89-1.424-39.848-3.909-59.643c-1.712-13.635-2.673-27.379-5.622-40.846c-0.102-0.508-0.203-1.017-0.305-1.525
		c-0.059-0.677-0.118-1.353-0.177-2.029c-1.764-12.42-3.918-24.769-6.813-36.979c-2.743-18.454-7.367-36.464-12.812-54.281
		c-1.745-8.797-4.514-17.309-7.121-25.873c-16.031-52.659-36.504-103.396-65.18-150.569c-8.864-14.582-17.8-29.136-28.746-42.313
		c-0.087-0.488-0.014-1.104-0.285-1.446C661.941,83.728,650.963,70,638.042,57.985c-5.151-4.938-10.424-9.761-15.396-14.873
		c-2.043-2.1-3.896-2.369-6.61-1.704c-95.752,23.437-191.519,46.811-287.29,70.167c-62.233,15.177-124.479,30.304-186.715,45.471
		c-12.307,2.999-24.595,6.076-37.118,9.173c5.935,7.184,11.528,13.954,17.121,20.724c0.746,1.266,1.371,2.622,2.254,3.783
		c10.593,13.927,20.105,28.577,29.233,43.487c4.717,8.202,9.63,16.298,14.121,24.622c29.6,54.875,54.207,111.955,75.434,170.548
		c6.783,18.724,12.469,37.799,18.989,56.601c4.51,16.041,9.021,32.082,13.53,48.122c2.549,10.268,5.099,20.535,7.648,30.803
		c3.079,14.922,6.317,29.813,9.202,44.771c4.873,25.273,8.607,50.718,9.574,76.471c0.436,11.604,0.133,23.235,0.165,34.854
		C302.177,721.683,302.17,722.36,302.163,723.038z M79.068,285.027c-1.265,1.468-2.793,2.75-3.341,4.724
		c-2.047,1.716-3.424,3.95-4.8,6.186c-1.085,1.073-2.404,1.394-3.881,1.204c-1.998-0.404-3.995-0.809-5.992-1.214
		c-1.472-1.296-3.334-0.937-5.052-1.187c-4.238-1.579-8.532-2.861-13.498-2.939c2.37,14.201,4.374,27.997,7.011,41.672
		c6.966,36.134,15.908,71.789,26.47,107.047c10.904,36.399,24.22,71.93,39.534,106.648c13.582,30.792,28.504,60.973,45.367,90.165
		c17.308,29.964,36.033,58.936,58.366,85.43c10.356,12.286,20.819,24.552,34.802,33.064c3.251,2.95,7.372,4.286,11.258,6.056
		c2.515,1.145,4.134,0.429,5.718-1.954c4.012-6.033,6.315-12.603,7.229-19.726c3.37-13.499,3.694-27.382,3.348-41.061
		c-0.77-30.438-5.006-60.59-10.847-90.449c-9.717-49.679-22.665-98.536-39.362-146.337c-16.901-48.384-35.063-96.271-57.19-142.58
		c-14.481-30.307-30.19-59.911-47.943-88.437c-2.47-3.968-3.815-4.092-5.332,0.331c-2.01,1.263-3.414,2.992-4.083,5.29
		c-2.266,1.456-3.466,3.818-5.012,5.887c-1.231,1.184-2.322,2.461-2.79,4.156c-2.287,1.489-3.539,3.835-4.979,6.023
		c-1.452,1.418-2.961,2.796-3.401,4.914c-2.388,1.283-3.402,3.734-4.903,5.771c-1.38,1.073-2.406,2.414-3.048,4.044
		c-1.855,1.863-3.578,3.827-4.734,6.222c-1.549,0.866-2.482,2.243-3.17,3.823C82.897,280.211,80.982,282.619,79.068,285.027z"/>
	<path fill-rule="evenodd" clip-rule="evenodd" fill="#D7DFE7" d="M262.064,485.983c-6.52-18.802-12.206-37.877-18.989-56.601
		c-21.227-58.593-45.834-115.673-75.434-170.548c-4.49-8.324-9.403-16.42-14.121-24.622c14.145-2.544,27.773-7.172,41.758-10.352
		c5.992-1.362,11.679-4.809,18.202-2.982c6.861,13.982,13.863,27.898,20.522,41.976c3.147,6.653,1.94,8.787-5.42,12.037
		c-0.935,0.412-2.669,0.132-2.155,1.951c0.387,1.37,1.131,2.029,2.958,1.542c9.923-2.649,19.905-5.076,29.86-7.606
		c0.913-0.232,2.148-0.433,1.663-1.854c-0.309-0.905-0.787-1.875-2.082-1.717c-1.152,0.142-2.308,0.256-3.458,0.413
		c-6.731,0.92-11.868-1.702-14.843-7.63c-6.988-13.924-13.669-28.001-20.475-42.016c2.936-2.232,6.631-1.876,9.918-2.911
		c0.478,0.117,1.001,0.144,1.425,0.363c26.359,13.668,52.709,27.352,79.059,41.037c1.475,0.766,2.881,1.686,4.407,2.32
		c1.45,0.604,3.259,0.455,4.273-0.486c1.187-1.101-0.389-2.345-0.889-3.454c-1.024-2.269-2.2-4.469-3.295-6.706
		c-8.004-16.372-16.004-32.745-24.005-49.118c7.65-2.153,15.332-4.202,22.938-6.498c4.78-1.442,9.383-3.055,11.429,3.679
		c0.275-0.149,0.551-0.298,0.826-0.447c6.358,12.734,12.719,25.467,19.075,38.201c3.692,7.397,2.935,9.523-4.434,13.289
		c-1.034,0.528-3.631,0.055-2.566,2.575c0.799,1.891,2.483,1.162,3.916,0.801c27.341-6.907,54.677-13.832,82.026-20.705
		c2.093-0.525,2.949-0.981,2.193-3.604c-2.063-7.163-3.559-14.487-5.408-21.714c-0.337-1.313,0.198-3.575-2.703-3.089
		c-2.379,0.399-2.952,1.814-3.027,3.781c-0.767,20.091-15.511,27.395-33.896,30.651c-4.786,0.848-8.214-1.17-10.411-5.753
		c-4.305-8.979-8.813-17.867-13.478-26.665c-1.6-3.016-1.471-3.883,2.198-4.717c12.354-2.81,21.453,1.729,28.376,11.642
		c1.528,2.188,2.941,3.447,5.759,1.95c-5.523-11.464-11.056-22.946-16.588-34.428c1.104-0.921,1.456-2.51,3.188-2.925
		c15.229-3.654,30.193-8.361,45.57-11.431l0.028,0.061c-0.166,0.19-0.332,0.381-0.498,0.571c0.201-0.144,0.402-0.287,0.604-0.432
		c17.038,16.859,34.081,33.715,51.109,50.585c1.538,1.523,2.933,3.45,5.478,2.374c2.587-1.094,1.313-3.5,1.272-5.217
		c-0.464-19.8-1.096-39.595-1.631-59.393c-0.027-1.01-0.679-2.354,1.725-3.425c7.182,7.39,14.511,15.094,22.021,22.619
		c9.881,9.9,19.931,19.634,29.837,29.511c1.445,1.44,2.636,2.038,4.75,1.305c2.59-0.898,1.426-2.744,1.331-4.114
		c-0.38-5.475-1.02-10.931-1.526-16.397c-1.44-15.56-2.864-31.121-4.294-46.683c5.437-2.588,11.238-3.941,17.112-5.047
		c5.475,8.063,13.747,11.591,22.69,14.11c11.895,3.35,24.34,3.304,36.334,6.018c5.263,1.19,10.246,2.891,13.779,7.334
		c4.749,5.974,3.36,14.113-3.087,18.048c-9.642,5.884-26.746,4.779-36.46-2.286c-5.127-3.729-10.05-7.709-14.057-12.626
		c-1.453-1.783-2.695-1.474-4.286-0.807c-2.368,0.992-0.437,2.272-0.019,3.145c4.306,8.979,8.71,17.911,13.15,26.825
		c0.446,0.895,0.646,2.636,2.303,1.885c1.094-0.496,3.121-0.011,3.132-1.861c0.033-5.85,4.198-5.104,7.771-4.851
		c12.533,0.893,24.44-1.075,35.761-6.739c11.768-5.889,16.727-19.573,11.022-31.21c-5.466-11.151-15.328-16.022-26.724-18.764
		c-9.854-2.37-20.131-2.125-29.907-4.932c0.985-0.546-0.006-2.105,2.204-2.514c9.823-1.813,19.135-5.936,29.221-6.734
		c1.476-0.116,2.508-0.732,2.791-2.284l-0.046,0.036c9.113-0.774,17.524-4.511,26.398-6.264c9.386-1.854,18.258-5.889,27.925-6.507
		c10.946,13.178,19.882,27.731,28.746,42.313c28.676,47.174,49.148,97.91,65.18,150.569c2.607,8.564,5.376,17.076,7.121,25.873
		c-9.906,4.87-20.621,7.288-31.146,10.283c-3.397-15.398-6.609-30.846-11.019-45.997c-8.696-29.876-18.525-59.234-37.472-84.627
		c-2.488-3.335-4.569-3.732-8.178-2.81c-40.206,10.282-80.425,20.512-120.7,30.519c-4.399,1.093-5.066,2.11-3.145,6.354
		c15.012,33.15,28.391,66.947,39.674,101.567c4.111,12.615,8.924,25.005,11.912,37.972c-3.05-0.107-5.885,0.876-8.718,1.788
		c-40.435,13.016-80.86,26.06-121.294,39.077c-28.746,9.255-57.511,18.452-86.252,27.726
		c-43.431,14.013-86.838,28.097-130.291,42.038C264.997,482.423,263.198,483.642,262.064,485.983z M437.194,361.272
		c0.898,4.711,3.227,5.732,7.121,3.854c1.317-0.636,2.876-0.76,4.312-1.163c39.135-11.006,78.271-22.004,117.384-33.087
		c1.33-0.377,4.197,0.286,3.105-2.995c-0.831-2.497-1.976-3.387-4.761-2.375c-4.042,1.468-8.275,2.407-12.427,3.572
		C513.77,339.786,475.611,350.493,437.194,361.272z M421.682,320.443c1.301-0.285,1.959-0.397,2.6-0.574
		c41.409-11.467,82.82-22.924,124.199-34.496c1.018-0.285,3.923,0.69,2.834-2.534c-0.817-2.423-1.936-3.625-4.697-2.729
		c-3.468,1.124-7.023,1.975-10.539,2.951c-38.033,10.558-76.068,21.11-114.089,31.712c-1.063,0.297-3.403-0.271-2.734,1.762
		C419.701,317.892,419.924,320.232,421.682,320.443z M448.331,389.418c1.576-0.392,2.551-0.603,3.508-0.876
		c7.648-2.18,15.288-4.387,22.938-6.558c32.999-9.363,66-18.718,99.001-28.073c4.228-1.198,4.897-2.656,2.57-5.296
		c-1.589-1.803-3.054-0.45-4.51-0.04c-26.5,7.471-52.994,14.958-79.478,22.483c-14.501,4.12-28.987,8.291-43.453,12.531
		c-1.137,0.333-3.684,0.002-2.641,2.431C446.77,387.188,446.221,389.757,448.331,389.418z M391.257,329.505
		c-0.457-2.434-0.994-4.237-4.219-3.25c-6.819,2.086-13.734,3.862-20.61,5.763c-34.713,9.592-69.407,19.253-104.166,28.675
		c-3.819,1.035-3.602,2.434-2.027,5.095c1.406,2.376,3.067,0.476,4.326,0.135c21.308-5.776,42.573-11.706,63.852-17.592
		c19.992-5.529,39.993-11.025,59.963-16.63C389.468,331.394,391.636,331.81,391.257,329.505z M287.294,435.797
		c1.978-0.502,3.267-0.797,4.538-1.157c26.161-7.419,52.319-14.847,78.478-22.271c14.831-4.21,29.667-8.4,44.489-12.641
		c2.765-0.791,3.506-3.483,1.51-5.215c-1.462-1.269-2.809-0.062-4.179,0.325c-29.354,8.295-58.71,16.588-88.062,24.894
		c-11.966,3.386-23.923,6.8-35.884,10.204c-1.319,0.375-3.286,0.127-2.352,2.604C286.308,433.802,285.996,435.544,287.294,435.797z
		 M409.222,374.966c-0.801-1.808-0.123-4.398-3.929-3.319c-41.828,11.858-83.706,23.537-125.604,35.146
		c-2.416,0.67-2.646,1.172-1.965,3.582c1.094,3.874,3.407,1.748,5.018,1.306c20.485-5.624,40.936-11.375,61.389-17.114
		c20.454-5.739,40.905-11.485,61.342-17.285C406.871,376.883,408.977,377.277,409.222,374.966z M422.515,417.116
		c-6.759,1.926-13.606,3.906-20.471,5.828c-35.115,9.833-70.216,19.718-105.381,29.368c-3.572,0.979-3.849,2.565-2.307,5.015
		c1.304,2.07,3.295,0.494,4.907,0.045c30.177-8.409,60.34-16.864,90.51-25.297c11.01-3.077,22.037-6.095,33.038-9.205
		c1.247-0.353,3.19-0.427,2.276-2.766C424.585,418.82,424.897,416.934,422.515,417.116z M372.133,285.53
		c-0.812-3.74-2.035-5.083-5.663-4.083c-41.384,11.405-82.823,22.606-124.221,33.959c-1.183,0.324-3.945-0.314-3.08,2.609
		c0.703,2.376,1.82,3.241,4.745,2.396c12.578-3.639,25.273-6.872,37.926-10.253c29.152-7.79,58.306-15.571,87.445-23.406
		C370.374,286.459,372.062,286.661,372.133,285.53z M532.06,239.079c-0.7-3.487-2.132-4.884-5.626-3.86
		c-9.383,2.749-18.842,5.241-28.277,7.81c-31.806,8.659-63.616,17.299-95.414,25.983c-1.316,0.359-3.271,0.169-3.563,1.901
		c-0.159,0.943,0.626,2.254,1.343,3.093c1.47,1.719,3.159,0.118,4.551-0.248c21.328-5.606,42.615-11.367,63.915-17.084
		c19.527-5.241,39.065-10.443,58.571-15.767C529.104,240.485,531.143,240.645,532.06,239.079z M412.219,297.837
		c1.693-0.466,3.13-0.858,4.565-1.255c17.734-4.902,35.467-9.813,53.203-14.707c23.004-6.347,46.017-12.661,69.004-19.069
		c1.308-0.365,3.824-0.257,2.781-2.944c-0.675-1.737-1.536-3.454-4.013-2.092c-0.688,0.378-1.636,0.254-2.433,0.473
		c-16.621,4.564-33.232,9.161-49.855,13.72c-24.459,6.706-48.926,13.387-73.388,20.084c-1.127,0.308-3.001-0.013-2.289,2.123
		C410.279,295.621,410.358,297.514,412.219,297.837z M400.775,352.886c0.287-3.125-2.334-4.503-5.94-3.495
		c-41.054,11.48-82.108,22.957-123.156,34.456c-1.361,0.382-3.818-0.154-3.213,2.413c0.592,2.512,2.066,3.501,5.09,2.627
		c17.687-5.11,35.444-9.979,53.187-14.893c23.5-6.509,47.015-12.964,70.497-19.537C398.469,354.113,400.467,354.696,400.775,352.886
		z M432.44,342.813c-0.013,0.004,0.604-0.248,1.242-0.424c41.418-11.449,82.839-22.887,124.248-34.366
		c1.245-0.345,3.859,0.368,2.394-2.769c-0.866-1.855-0.776-3.624-3.91-2.64c-8.695,2.733-17.548,4.962-26.325,7.435
		c-32.89,9.267-65.773,18.553-98.662,27.819c-1.338,0.377-3.351,0.023-2.469,2.517C429.435,341.731,429.537,343.534,432.44,342.813z
		 M379.279,303.486c-1.33,0.358-2.455,0.657-3.577,0.964c-40.654,11.118-81.31,22.229-121.956,33.375
		c-1.732,0.476-4.759-0.383-4.302,2.937c0.604,4.385,3.685,2.525,5.991,1.905c14.26-3.836,28.497-7.759,42.744-11.641
		c26.895-7.326,53.792-14.64,80.682-21.982c1.287-0.352,3.496,0.054,3.164-2.136C381.809,305.482,381.263,303.577,379.279,303.486z
		 M456.816,412.326c0.967-0.238,1.941-0.447,2.898-0.719c40.553-11.532,81.104-23.069,121.654-34.607
		c2.026-0.576,4.446-0.725,3.582-3.998c-0.979-3.703-3.264-1.729-5.097-1.206c-33.197,9.461-66.387,18.952-99.571,28.456
		c-7.977,2.284-15.938,4.621-23.893,6.978c-1.15,0.341-3.046,0.382-2.113,2.406C454.779,410.725,454.343,413.004,456.816,412.326z"
		/>
	<path fill-rule="evenodd" clip-rule="evenodd" fill="#B6C5D2" d="M794.297,412.525c2.949,13.467,3.91,27.211,5.622,40.846
		c2.485,19.795,2.737,39.753,3.909,59.643c0.215,3.637,0.472,7.295-0.351,10.908c-0.324-1.29-0.649-2.579-0.974-3.868
		c0.108,6.376-1.604,12.709,0.355,18.911c0.102,3.854,0.417,7.719-0.566,11.52c-0.229-2.081-0.46-4.161-0.689-6.241
		c-0.604,2.183-0.685,4.314-0.581,6.437c0.109,2.226-0.527,3.934-2.774,4.673c-3.427,1.127-6.705,2.85-10.46,2.72
		c-1.408,0.491-2.804,1.024-4.227,1.467c-40.356,12.561-80.694,25.178-121.104,37.563c-3.991,1.224-5.335,3.113-4.591,6.937
		c-1.508-1.008-0.418-2.844-1.057-3.745c-7.041,3.644-14.72,5.24-22.048,7.783c-1.737-0.419-3.259,0.38-4.831,0.869
		c-33.551,10.444-67.139,20.774-100.625,31.424c-8.472,2.694-17.335,4.331-25.271,8.62c-0.889,0.677-1.679,1.648-2.683,1.986
		c-8.67,2.918-17.229,6.217-26.234,8.044c-0.116-1.63-0.231-3.26-0.346-4.865c-0.548-0.028-0.899-0.139-1.189-0.049
		c-41.765,12.976-83.515,25.997-125.301,38.904c-4.076,1.26-5.437,3.191-3.271,7.057c-0.289,2.525-2.616,2.278-4.146,2.789
		c-9.978,3.335-19.945,6.734-30.057,9.622c-4.717,1.349-7.938,3.46-8.625,8.526c-0.032-11.619,0.271-23.25-0.165-34.854
		c-0.967-25.753-4.701-51.197-9.574-76.471c-2.884-14.959-6.123-29.85-9.202-44.771c0.809-2.084,1.483-3.912,4.19-4.707
		c9.774-2.87,19.49-5.97,29.089-9.374c1.574-0.558,3.625,1.308,4.62-1.071c0.663,2.907,2.302,2.98,4.899,2.207
		c40.457-12.034,80.923-24.038,121.455-35.814c4.361-1.268,5.939-2.715,3.426-6.841c0.298-3.03,3.018-2.733,4.879-3.338
		c11.358-3.693,22.775-7.205,34.149-10.852c30.343-9.729,60.679-19.483,91.01-29.253c28.592-9.21,57.179-18.435,85.759-27.684
		c36.953-11.958,73.893-23.959,110.851-35.903c4.246-1.372,8.573-2.498,12.728-3.699c2.226,3.273,0.003,7.766,3.519,10.391
		c0.059,0.677,0.118,1.353,0.177,2.029c-1.051,0.831-1.334,1.809-0.575,2.988C793.71,413.5,794.004,413.013,794.297,412.525z
		 M457.47,535.141c0.241-3.588-2.491-2.243-5.232-1.416c-40.502,12.225-81.018,24.405-121.531,36.592
		c-2.25,0.677-4.537,1.021-3.479,4.524c1.272,4.213,3.874,1.035,5.096,0.692c14.215-3.981,28.327-8.326,42.469-12.57
		c26.536-7.966,53.073-15.927,79.608-23.896C455.856,538.629,458.016,538.972,457.47,535.141z M489.116,530.171
		c0.734-0.228,1.685-0.53,2.64-0.814c15.745-4.695,31.485-9.408,47.238-14.076c25.146-7.45,50.292-14.905,75.467-22.259
		c2.997-0.876,4.199-2.112,2.685-5.15c-1.549-3.106-3.625-0.608-5.009-0.2c-27.694,8.165-55.33,16.529-82.98,24.846
		c-13.352,4.015-26.706,8.023-40.067,12.007c-1.658,0.494-3.162,0.848-2.161,3.197C487.38,528.781,486.563,530.659,489.116,530.171z
		 M656.739,579.043c42.556-13.09,84.756-26.13,127.02-38.961c3.321-1.009,3.284-2.916,2.628-5.104
		c-0.944-3.145-3.006-0.751-4.372-0.333c-40.465,12.393-80.884,24.935-121.383,37.217
		C656.532,573.105,654.992,574.679,656.739,579.043z M343.416,674.448c0.914-0.218,1.87-0.389,2.791-0.672
		c41.438-12.723,82.868-25.468,124.316-38.154c2.459-0.752,3.648-1.743,2.955-4.575c-0.955-3.903-3.349-1.19-4.534-0.829
		c-40.473,12.345-80.876,24.918-121.361,37.22C343.519,668.672,341.934,670.251,343.416,674.448z M783.864,512.186
		c0.131-2.59-0.679-3.381-3.813-2.384c-18.484,5.881-37.057,11.482-55.595,17.194c-22.656,6.979-45.301,14.001-67.975,20.926
		c-2.284,0.697-4.012,1.134-3.037,4.234c1.05,3.341,2.904,1.189,4.271,0.783c15.426-4.588,30.821-9.274,46.223-13.941
		c25.555-7.744,51.115-15.474,76.647-23.293C782.072,515.251,784.631,515.38,783.864,512.186z M624.638,534.738
		c-0.73,0.167-1.555,0.305-2.348,0.545c-40.942,12.372-81.875,24.776-122.836,37.085c-2.748,0.826-3.733,1.74-2.81,4.803
		c1.08,3.581,2.943,1.085,4.13,0.728c30.953-9.309,61.877-18.721,92.798-28.139c10.311-3.141,20.575-6.438,30.923-9.453
		c2.371-0.69,2.829-1.805,2.4-3.93C626.635,535.079,626.373,534.057,624.638,534.738z M500.066,600.209
		c-0.597,3.605,1.442,3.206,3.842,2.464c41.026-12.695,82.06-25.368,123.085-38.065c2.158-0.668,4.925-1.045,3.556-4.5
		c-1.258-3.172-3.423-0.93-4.916-0.485c-20.662,6.148-41.289,12.418-61.911,18.701c-19.987,6.089-39.963,12.219-59.933,18.365
		C502.053,597.223,499.43,596.972,500.066,600.209z M338.504,625.013c0.561-0.221,1.164-0.509,1.797-0.7
		c41.279-12.517,82.558-25.039,123.854-37.498c2.568-0.775,3.611-2.124,2.717-4.639c-0.942-2.652-2.696-0.909-4.046-0.505
		c-30.194,9.036-60.377,18.109-90.561,27.183c-11.123,3.345-22.227,6.757-33.377,10.011c-1.876,0.548-3.27,1.021-2.351,3.259
		C336.969,623.172,336.272,625.06,338.504,625.013z M342.566,649.194c0.145-0.035,0.637-0.127,1.112-0.273
		c41.194-12.683,82.383-25.384,123.591-38.024c2.504-0.768,4.399-1.797,3.313-4.701c-1.076-2.876-3.039-0.817-4.521-0.369
		c-32.684,9.885-65.354,19.817-98.022,29.748c-8.565,2.604-17.098,5.315-25.696,7.801c-2.456,0.71-2.546,2.084-2.084,4.067
		C340.518,648.554,340.363,649.955,342.566,649.194z M503.105,625.408c-0.741,3.615,1.256,2.667,3.393,2.007
		c19.339-5.98,38.707-11.865,58.045-17.848c21.874-6.767,43.69-13.721,65.625-20.284c3.282-0.981,3.619-2.738,2.876-5.003
		c-0.937-2.854-3.033-0.694-4.413-0.284c-11.127,3.309-22.21,6.766-33.301,10.193c-29.798,9.211-59.586,18.449-89.402,27.597
		C503.972,622.386,502.344,622.761,503.105,625.408z M482.668,506.391c1.188-0.282,1.844-0.407,2.481-0.596
		c41.215-12.176,82.42-24.382,123.659-36.475c2.5-0.732,4.001-1.545,3.018-4.309c-1.136-3.196-3.435-1.159-4.958-0.716
		c-35.042,10.208-70.054,20.524-105.065,30.837c-6.21,1.829-12.358,3.888-18.618,5.52c-2.343,0.61-2.356,1.724-1.944,3.521
		C481.499,505.3,481.468,506.582,482.668,506.391z M775.964,464.362c-0.171-2.296-0.497-3.683-3.605-2.74
		c-41.461,12.574-82.962,25.017-124.47,37.437c-2.272,0.681-3.363,1.534-2.607,4.138c0.917,3.16,2.697,1.482,4.269,1.01
		c17.647-5.312,35.287-10.648,52.933-15.964c23.369-7.039,46.742-14.068,70.114-21.096
		C774.132,466.686,776.067,466.737,775.964,464.362z M765.104,416.627c0.158-2.093-0.99-2.535-3.951-1.666
		c-41.207,12.094-82.453,24.057-123.704,36c-2.293,0.664-3.854,1.104-2.916,4.22c0.992,3.291,2.742,1.469,4.207,1.046
		c21.986-6.335,43.955-12.729,65.932-19.098c18.797-5.449,37.611-10.837,56.368-16.418
		C762.555,420.261,765.502,420.852,765.104,416.627z M770.962,442.536c-0.136-4.236-1.284-4.813-4.482-3.86
		c-41.046,12.235-82.142,24.306-123.241,36.36c-2.369,0.695-4.001,1.488-3.061,4.363c0.992,3.036,2.902,1.201,4.384,0.771
		c13.721-3.974,27.422-8.017,41.126-12.049c27.24-8.016,54.48-16.028,81.71-24.08C768.828,443.618,770.931,443.887,770.962,442.536z
		 M622.436,513.117c0.624-3.701-1.78-2.594-4.148-1.88c-40.999,12.358-82.004,24.696-123.017,37.01
		c-2.152,0.646-4.107,1.043-3.17,4.166c1.046,3.485,3.246,1.443,4.734,1.006c14.966-4.397,29.886-8.954,44.82-13.458
		c25.583-7.716,51.178-15.391,76.722-23.234C619.848,516.275,622.849,516.954,622.436,513.117z M462.779,559.473
		c0.014-2.435-1.37-3.064-4.438-2.102c-13.605,4.27-27.271,8.351-40.921,12.479c-27.31,8.26-54.609,16.55-81.954,24.688
		c-2.7,0.803-4.267,1.889-3.355,4.7c1.148,3.545,3.443,0.695,4.785,0.306c19.907-5.793,39.755-11.79,59.611-17.759
		c20.967-6.302,41.936-12.596,62.866-19.016C460.609,562.392,463.075,562.997,462.779,559.473z M651.197,529.414
		c1.444-0.379,2.579-0.635,3.688-0.974c40.606-12.419,81.196-24.893,121.845-37.171c2.908-0.878,4.077-1.999,3.195-4.745
		c-0.996-3.101-3.072-0.817-4.374-0.425c-31.115,9.395-62.198,18.899-93.282,28.397c-10.15,3.102-20.287,6.247-30.433,9.364
		c-1.391,0.427-3.301,0.486-2.192,2.77C650.117,527.604,649.228,529.615,651.197,529.414z"/>
	<path fill-rule="evenodd" clip-rule="evenodd" fill="#B6C5D2" d="M262.064,485.983c1.134-2.342,2.933-3.561,5.499-4.384
		c43.453-13.941,86.86-28.025,130.291-42.038c28.741-9.273,57.506-18.471,86.252-27.726c40.434-13.018,80.859-26.062,121.294-39.077
		c2.833-0.912,5.668-1.896,8.718-1.788c1.299,1.764,1.712,3.823,1.98,5.931c1.712,7.304,1.713,7.305,8.757,5.002
		c0.942-0.308,1.875-0.644,2.82-0.943c17.13-5.43,34.569-9.865,51.468-16.039c3.806-0.135,6.91-2.677,10.633-3.097
		c17.344-5.085,34.689-10.165,52.03-15.261c1.751-0.515,3.62-0.989,3.224-3.509c0.289-5.146-1.702-9.991-1.985-15.062
		c10.525-2.995,21.24-5.413,31.146-10.283c5.444,17.817,10.068,35.827,12.812,54.281c-34.765,11.077-69.544,22.105-104.289,33.243
		c-36.807,11.799-73.581,23.704-110.37,35.558c-40.438,13.029-80.878,26.053-121.316,39.081
		c-19.575,6.307-39.189,12.497-58.705,18.982c-8.116,2.696-16.552,4.503-24.272,8.354c-3.025,1.221-6.05,2.442-9.075,3.663
		c-3.639-1.787-6.327,0.087-8.924,2.315l0.109-0.072c-6.189-0.518-11.493,2.769-17.233,4.159c-3.379,0.817-7.368,0.692-9.86,3.942
		l0.121-0.096c-1.201-0.021-2.512-0.38-3.248,1.044c-1.736,0.602-3.474,1.202-5.21,1.804c-11.381,3.58-22.772,7.13-34.133,10.772
		c-1.858,0.596-3.464,0.614-5-0.636C271.084,518.065,266.574,502.024,262.064,485.983z M310.638,505.497
		c1.282-0.367,2.242-0.638,3.2-0.917c40.775-11.864,81.557-23.713,122.305-35.671c1.355-0.397,4.329,0.46,3.32-3.276
		c-1.005-3.722-2.818-2.521-5.137-1.842c-25.003,7.327-50.026,14.583-75.049,21.843c-16.093,4.668-32.199,9.287-48.273,14.016
		c-1.139,0.335-3.646-0.103-2.734,2.387C308.735,503.309,308.401,505.653,310.638,505.497z M752.501,370.053
		c0.399-2.922-1.866-2.374-4.475-1.615c-40.94,11.914-81.893,23.785-122.826,35.719c-1.96,0.57-4.591,0.526-3.366,4.316
		c1.249,3.866,3.307,1.253,4.611,0.88c27.905-7.978,55.766-16.111,83.64-24.194c13.064-3.789,26.154-7.49,39.188-11.381
		C750.505,373.41,752.932,373.797,752.501,370.053z M471.514,459.028c0.416-0.124,1.211-0.368,2.01-0.599
		c40.991-11.807,81.977-23.632,122.989-35.365c2.377-0.681,3.368-1.472,2.692-4.089c-0.807-3.127-2.511-1.654-4.177-1.176
		c-34.295,9.855-68.597,19.687-102.891,29.545c-7.026,2.021-14.006,4.206-21.052,6.155c-2.147,0.594-2.466,1.689-2.025,3.604
		C469.341,458.318,469.407,459.481,471.514,459.028z M303.792,481.865c0.716-0.243,1.491-0.545,2.288-0.772
		c15.479-4.423,30.963-8.828,46.441-13.255c25.711-7.354,51.392-14.814,77.156-21.978c3.76-1.045,3.544-2.856,2.043-5.1
		c-1.257-1.877-3.113-0.036-4.51,0.354c-30.827,8.634-61.621,17.383-92.418,26.123c-10.369,2.943-20.726,5.931-31.091,8.888
		c-1.699,0.485-3.262,0.978-2.138,3.313C302.066,480.481,301.479,482.405,303.792,481.865z M592.393,395.976
		c0.048-3.308-2.474-1.829-4.704-1.189c-41.107,11.806-82.222,23.588-123.315,35.443c-1.338,0.386-3.837-0.175-2.776,3.171
		c1.015,3.2,2.423,2.627,4.774,1.933c22.9-6.759,45.831-13.414,68.757-20.084c17.997-5.236,36.01-10.417,53.977-15.753
		C590.348,399.126,592.856,399.668,592.393,395.976z"/>
	<path fill-rule="evenodd" clip-rule="evenodd" fill="#FCFDFD" d="M673.144,98.954c-9.667,0.618-18.539,4.653-27.925,6.507
		c-8.874,1.753-17.285,5.489-26.398,6.264c-4.045-8.497-8.071-17.002-12.157-25.479c-0.521-1.081-0.826-2.81-2.717-2.1
		c-1.257,0.472-3.08,0.296-2.98,2.565c0.166,3.775-2.439,4.204-5.336,4.135c-8.474-0.206-16.843,0.272-25.197,2.081
		c-13.292,2.876-21.656,11.719-21.479,23.473c0.074,4.94,2.116,9.258,4.292,13.531c-5.874,1.105-11.676,2.459-17.112,5.047
		c-0.691-6.272-1.535-12.534-2.012-18.823c-0.25-3.303-0.036-6.691,3.45-8.701c1.144-0.658,3.174-0.854,2.248-3.103
		c-0.926-2.247-2.715-1.501-4.24-1.111c-6.893,1.76-13.778,3.557-20.621,5.497c-1.064,0.302-3.597-0.564-2.778,2.195
		c0.59,1.99,1.933,2.071,3.884,1.686c7.711-1.524,11.253,1.236,11.921,9.05c0.452,5.294,0.813,10.596,1.215,15.895
		c-0.103,0.312-0.188,0.63-0.313,0.933c-0.186,0.451-0.715,0.847-0.741,0.129c-0.091-2.464-1.614-1.985-3.03-1.597
		c-6.137,1.682-12.26,3.416-18.388,5.132c-4.908-4.939-10.039-9.68-14.663-14.872c-4.659-5.231-3.974-6.971,2.372-9.64
		c1.098-0.462,3.722,0.093,3.159-2.189c-0.618-2.504-2.891-1.606-4.574-1.185c-12.35,3.094-24.69,6.222-37.016,9.412
		c-2.044,0.528-5.776,0.22-5.543,2.479c0.353,3.412,4.054,1.683,6.264,1.765c6.886,0.256,17.218,8.478,18.349,14.918
		c0,3.327,0,6.653,0,10.491c-3.415-2.864-19.154,0.591-23.977,4.602c-5.619-4.715-10.577-10.104-15.314-15.657
		c-4.634-5.431-4.156-7.036,2.174-10.076c1.044-0.501,2.37-0.525,1.673-2.283c-0.552-1.393-1.131-2.098-2.914-1.629
		c-13.132,3.447-26.304,6.743-39.434,10.195c-0.849,0.224-2.609-0.068-2.358,1.848c0.244,1.862,1.637,1.945,2.986,1.791
		c4.538-0.521,8.15,1.53,11.172,4.437c5.755,5.536,11.245,11.35,16.845,17.048c-15.377,3.069-30.341,7.776-45.57,11.431
		c-1.731,0.415-2.083,2.004-3.188,2.925c-1.246-2.34-2.579-4.639-3.709-7.034c-0.78-1.653-1.832-1.427-3.249-1.059
		c-1.871,0.487-1.251,1.748-0.946,2.738c1.048,3.417,1.094,6.861,0.602,10.352c-0.646-4.276-2.759-4.484-6.642-3.342
		c-5.043,1.483-10.121,3.222-15.476,3.495c-2.926-5.904-5.797-11.836-8.797-17.701c-1.927-3.766-0.54-6.116,3.085-7.294
		c3.45-1.121,6.995-2,10.551-2.734c12.726-2.629,24.854-2.62,34.308,8.33c1.295,1.5,2.783,2.855,3.923,4.462
		c1.115,1.57,2.418,1.671,3.786,0.808c1.563-0.986,0.113-1.991-0.311-2.895c-3.233-6.887-6.586-13.72-9.73-20.646
		c-1.035-2.28-2.255-2.784-4.643-2.068c-4.588,1.374-9.275,2.417-13.926,3.585c-22.279,5.598-44.563,11.18-66.829,16.828
		c-0.979,0.248-3.092-0.448-2.479,1.917c0.425,1.64,1.434,2.594,3.3,2.135c1.125-0.276,2.247-0.647,3.39-0.743
		c4.667-0.391,9.083-0.07,11.459,4.907c3.775,7.911,7.534,15.829,11.301,23.744c-0.275,0.149-0.551,0.298-0.826,0.447
		c-2.046-6.733-6.648-5.121-11.429-3.679c-7.606,2.296-15.288,4.345-22.938,6.498c-3.286-4.771-5.433-10.134-7.861-15.339
		c-3.665-7.856-3.287-8.929,4.144-13.373c0.993-0.594,2.415-0.763,1.557-2.364c-0.527-0.983-1.087-1.763-2.71-1.346
		c-9.447,2.431-18.948,4.655-28.422,6.98c-0.963,0.235-1.993,0.606-1.597,1.983c0.298,1.037,0.911,1.738,2.111,1.694
		c1.991-0.072,3.994-0.021,5.972-0.219c4.927-0.491,8.418,2.006,10.806,5.787c3.617,5.729,6.583,11.844,9.042,18.181
		c-7.933,0.926-15.438,3.494-22.964,5.985c-13.648-7.063-27.291-14.14-40.957-21.169c-1.539-0.792-2.859-1.842-5.032-1.27
		c-9.111,2.401-18.311,4.463-27.454,6.749c-0.859,0.215-2.647,0.078-2.042,1.946c0.284,0.877,0.53,1.884,1.912,1.883
		c5.344-0.005,9.543,3.374,14.349,4.977c1.635,0.546,2.718,1.579,3.473,3.271c2.625,5.884,5.458,11.676,8.212,17.502
		c-6.523-1.826-12.21,1.62-18.202,2.982c-13.984,3.18-27.613,7.808-41.758,10.352c-9.127-14.91-18.64-29.561-29.233-43.487
		c-0.883-1.161-1.509-2.518-2.254-3.783c1.677-0.761,3.413,0.011,5.244-0.453c45.28-11.461,90.603-22.755,135.917-34.079
		c113.94-28.475,227.89-56.914,341.808-85.479c11.062-2.773,22.392-4.62,33.039-8.946C650.963,70,661.941,83.728,672.858,97.508
		C673.13,97.851,673.057,98.466,673.144,98.954z"/>
	<path fill-rule="evenodd" clip-rule="evenodd" fill="#CAD5E0" d="M92.716,267.757c0.642-1.63,1.667-2.971,3.047-4.044
		c1.479,1.298,1.62,3.222,2.228,4.904c6.138,17.009,11.875,34.172,18.411,51.024c15.177,39.133,29.069,78.735,43.551,118.12
		c12.652,34.409,24.583,69.085,37.271,103.48c18.607,50.438,36.283,101.205,54.27,151.862c3.311,9.325,6.559,18.674,9.835,28.012
		c0.561-1.173,0.466-2.142,0.224-3.072c-14.102-54.09-30.893-107.37-48.197-160.5c-12.077-37.082-25.071-73.843-38.437-110.473
		c-8.982-24.615-17.86-49.275-27.349-73.695c-14.055-36.171-28.568-72.164-43.051-108.166c-0.997-2.478-1.036-5.678-3.852-7.269
		c0.44-2.118,1.949-3.496,3.401-4.913c7.949,19.108,16.118,38.13,23.79,57.35c9.099,22.795,17.689,45.791,26.642,68.645
		c20.217,51.607,38.162,104.034,56.36,156.367c10.41,29.937,20.146,60.104,29.23,90.477c5.795,19.375,11.865,38.667,17.068,58.217
		c3.019,11.347,6.229,22.642,9.353,33.96c0.434-0.885,0.552-1.719,0.417-2.509c-4.317-25.123-9.478-50.076-15.547-74.831
		c-6.076-24.783-12.987-49.339-20.109-73.847c-7.638-26.285-16.029-52.314-24.959-78.173c-9.313-26.965-19.017-53.791-29.076-80.492
		c-8.596-22.818-17.881-45.357-27.135-67.908c-8.878-21.635-17.886-43.228-27.429-64.573c-4.315-9.652-7.813-19.745-13.624-28.706
		c0.468-1.695,1.559-2.973,2.79-4.156c1.414,0.839,1.743,2.389,2.337,3.72c16.564,37.112,32.822,74.359,48.032,112.05
		c16.321,40.444,32.263,81.05,46.138,122.402c12.499,37.253,24.448,74.688,35.055,112.549c8.718,31.121,16.617,62.409,22.684,94.154
		c2.072,10.839,4.122,21.682,6.182,32.522c-0.175-8.621-0.37-17.23-1.525-25.708c-4.248-31.15-9.685-62.085-16.682-92.763
		c-9.441-41.394-21.089-82.152-34.457-122.416c-11.603-34.95-25.361-69.107-38.961-103.319
		c-11.099-27.919-23.195-55.395-35.841-82.637c-6.712-14.46-13.36-28.953-20.347-43.279c-2.208-4.528-3.467-9.711-7.603-13.162
		c0.669-2.298,2.073-4.027,4.083-5.29c0.343,1.101,0.55,2.268,1.049,3.292c9.387,19.249,18.531,38.61,27.568,58.028
		c11.902,25.573,23.172,51.414,34.03,77.435c14.942,35.809,28.316,72.223,40.552,109.033
		c15.993,48.113,29.747,96.852,39.735,146.613c4.593,22.88,8.217,45.908,10.924,69.059c1.749,14.955,2.351,30.044,3.467,45.072
		c-0.915,7.123-3.218,13.692-7.229,19.726c-1.584,2.383-3.204,3.099-5.718,1.954c-3.886-1.77-8.007-3.105-11.258-6.056
		c-0.136-1.747-1.151-3.063-2.126-4.414c-8.919-12.361-18.055-24.575-26.695-37.13c-24.862-36.122-47.136-73.811-66.952-112.919
		c-9.838-19.416-19.834-38.757-28.517-58.758c-11.426-26.323-22.272-52.859-31.669-79.976
		c-13.579-39.18-24.777-79.021-33.581-119.551c-3.478-16.013-6.06-32.159-8.511-48.34c1.718,0.25,3.58-0.109,5.052,1.187
		c-0.002,0.667-0.093,1.347,0.006,1.998c3.496,23.079,8.231,45.92,13.653,68.609c9.569,40.048,22.334,79.125,36.484,117.758
		c10.678,29.151,22.913,57.663,36.307,85.657c7.174,14.993,14.823,29.775,22.708,44.41c8.106,15.043,16.861,29.736,25.148,44.684
		c9.021,16.271,19.867,31.376,29.811,47.055c2.592,4.088,5.001,8.601,9.244,11.761c0.677-1.756-0.261-2.69-0.82-3.606
		c-13.057-21.395-25.156-43.335-37.06-65.379c-17.211-31.87-32.831-64.54-46.856-97.913c-17.138-40.779-33.358-81.92-46.948-124.08
		c-9.919-30.772-19.195-61.705-27.218-93.015c-3.119-12.17-6.409-24.307-8.468-36.725c1.477,0.189,2.796-0.131,3.881-1.204
		c0.292,0.39,0.765,0.743,0.852,1.174c7.749,38.351,18.53,75.902,30.227,113.187c11.215,35.753,23.795,71.036,37.833,105.793
		c11.552,28.604,23.763,56.936,37.169,84.703c16.965,35.138,35.186,69.646,55.075,103.237c2.901,4.9,5.229,10.284,9.651,14.188
		c0.273,2.047,0.85,3.93,3.345,5.886c-0.736-2.879-1.676-4.614-2.96-6.198c-4.262-10.651-10.381-20.367-15.448-30.614
		c-14.136-28.589-27.782-57.409-40.31-86.734c-11.985-28.056-24.115-56.077-35.058-84.545
		c-15.877-41.308-31.233-82.829-44.46-125.095c-6.783-21.675-14.277-43.122-20.395-65.011c-3.383-12.104-6.278-24.362-10.722-36.155
		c0.549-1.975,2.077-3.257,3.341-4.725c1.365,1.191,1.369,2.962,1.813,4.504c4.993,17.356,9.495,34.866,14.96,52.071
		c11.505,36.216,22.566,72.59,35.614,108.295c13.548,37.075,27.307,74.074,42.619,110.477c9.716,23.1,19.632,46.108,30.017,68.913
		c5.231,11.488,10.563,22.931,15.949,34.348c9.857,20.894,20.364,41.459,31.46,62.04c0.648-1.321,0.233-2.176-0.177-3.104
		c-4.753-10.779-9.433-21.591-14.213-32.357c-13.601-30.632-25.509-61.957-38.137-92.987
		c-14.941-36.714-28.729-73.869-42.463-111.051c-14.94-40.447-29.443-81.045-43.454-121.819
		c-5.875-17.098-11.435-34.304-17.145-51.459c-3.875-11.643-8.208-23.14-11.098-35.095c0.688-1.58,1.621-2.957,3.17-3.823
		c2,6.496,3.849,13.044,6.027,19.479c9.578,28.297,19.288,56.548,28.883,84.839c16.731,49.336,34.231,98.394,53.002,146.995
		c12.667,32.798,24.808,65.802,38.333,98.263c11.355,27.253,22.87,54.439,34.359,81.637c2.424,5.74,5.045,11.397,7.576,17.093
		c0.672-0.79,0.753-1.311,0.599-1.747c-9.258-26.106-18.54-52.204-27.809-78.307c-7.438-20.942-14.771-41.922-22.312-62.827
		c-13.505-37.441-27.157-74.83-40.698-112.258c-7.843-21.679-15.508-43.423-23.402-65.083
		c-10.561-28.979-21.221-57.924-31.928-86.85C104.741,299.358,98.687,283.573,92.716,267.757z M236.735,721.216
		c0.276,0.71,0.552,1.419,0.828,2.129c0.13-0.1,0.356-0.182,0.376-0.3c0.149-0.865-0.069-1.609-0.822-2.138
		c-0.301-0.541-0.578-1.1-0.936-1.599c-0.044-0.063-0.731,0.139-0.775,0.307C235.13,720.692,235.875,721.02,236.735,721.216z
		 M239.469,724.471c-0.124,0.083-0.365,0.193-0.353,0.244c0.064,0.267,0.191,0.52,0.297,0.776c0.123-0.085,0.36-0.197,0.348-0.253
		C239.702,724.974,239.574,724.725,239.469,724.471z"/>
	<path fill-rule="evenodd" clip-rule="evenodd" fill="#D7DEE7" d="M787.788,558.072c3.755,0.13,7.033-1.593,10.46-2.72
		c2.247-0.739,2.884-2.447,2.774-4.673c-0.104-2.122-0.022-4.254,0.581-6.437c0.229,2.08,0.46,4.16,0.689,6.241
		c-1.211,10.701-1.707,21.486-5.623,31.771c-1.26,3.307-3.229,4.541-6.2,5.52c-49.778,16.387-99.542,32.818-149.298,49.273
		c-108.154,35.769-216.303,71.556-324.454,107.332c-6.092,2.016-12.19,4.009-18.751,6.165c0.775-4.52,1.442-8.694,2.952-12.698
		c0.176,0.437,0.352,0.873,0.527,1.309c0.156-0.193,0.484-0.457,0.439-0.568c-0.227-0.549-0.551-1.058-0.841-1.58
		c0.037-1.675,0.074-3.35,0.111-5.024c3.446-2.632,1.775-5.839,1.007-8.945c0.007-0.678,0.014-1.355,0.02-2.033
		c0.687-5.066,3.908-7.178,8.625-8.526c10.111-2.888,20.079-6.287,30.057-9.622c1.53-0.511,3.857-0.264,4.146-2.789
		c24.653-7.709,49.336-15.327,73.95-23.158c18.722-5.955,37.683-11.16,56.158-17.889c9.006-1.827,17.564-5.126,26.234-8.044
		c1.004-0.338,1.794-1.31,2.683-1.986c0.228,1.433,0.455,2.866,0.714,4.499c0.869-0.206,1.673-0.346,2.445-0.586
		c41.426-12.898,82.821-25.899,124.318-38.566c4.183-1.276,3.521-3.483,3.25-6.26c7.328-2.543,15.007-4.14,22.048-7.783
		c0.639,0.901-0.451,2.737,1.057,3.745c0.001,0,0.093,0.091,0.093,0.091c0.276,0.751,0.628,0.771,1.052,0.11
		c1.245-0.438,2.479-0.915,3.738-1.308c40.22-12.539,80.416-25.155,120.701-37.479C787.892,564.095,788.931,562.059,787.788,558.072
		z"/>
	<path fill-rule="evenodd" clip-rule="evenodd" fill="#D7DFE7" d="M638.042,57.985c-10.647,4.326-21.978,6.173-33.039,8.946
		c-113.918,28.564-227.867,57.004-341.808,85.479c-45.315,11.324-90.637,22.618-135.917,34.079
		c-1.832,0.464-3.567-0.308-5.244,0.453c-5.593-6.77-11.186-13.54-17.121-20.724c12.523-3.097,24.811-6.174,37.118-9.173
		c62.236-15.167,124.481-30.294,186.715-45.471c95.771-23.356,191.538-46.73,287.29-70.167c2.715-0.665,4.567-0.396,6.61,1.704
		C627.618,48.225,632.891,53.047,638.042,57.985z"/>
	<path fill-rule="evenodd" clip-rule="evenodd" fill="#D7DEE7" d="M368.049,507.21c7.721-3.852,16.156-5.658,24.272-8.354
		c19.516-6.485,39.13-12.676,58.705-18.982c40.438-13.028,80.878-26.052,121.316-39.081c36.789-11.854,73.563-23.759,110.37-35.558
		c34.745-11.138,69.524-22.166,104.289-33.243c2.896,12.211,5.05,24.56,6.813,36.979c-3.516-2.625-1.293-7.117-3.519-10.391
		c-4.154,1.201-8.481,2.327-12.728,3.699c-36.958,11.944-73.897,23.945-110.851,35.903c-28.58,9.249-57.167,18.474-85.759,27.684
		c-30.331,9.77-60.667,19.523-91.01,29.253c-11.374,3.646-22.791,7.158-34.149,10.852c-1.861,0.604-4.581,0.308-4.879,3.338
		c-8.59,2.508-17.188,4.987-25.767,7.529c-33.528,9.935-67.052,19.883-100.57,29.852c-1.573,0.468-4.021,0.118-3.443,3.067
		c-0.995,2.379-3.046,0.514-4.62,1.071c-9.6,3.404-19.315,6.504-29.089,9.374c-2.707,0.795-3.381,2.623-4.19,4.707
		c-2.549-10.269-5.099-20.536-7.648-30.803c1.537,1.25,3.143,1.231,5.001,0.636c11.361-3.643,22.752-7.192,34.133-10.772
		c-0.112,4.532,1.558,5.46,6.066,4.113c40.679-12.148,81.426-24.067,122.169-36.002c2.073-0.607,3.816-0.848,2.857-3.825
		c-0.955-2.963-2.519-2.109-4.576-1.496c-18.601,5.541-37.211,11.05-55.865,16.408C379.684,504.804,374.158,507.302,368.049,507.21z
		 M758.997,393.745c0.017-3.035-1.563-3.001-4.214-2.216c-41.161,12.199-82.346,24.32-123.549,36.377
		c-2.18,0.639-3.611,0.989-2.964,3.855c0.816,3.616,2.819,1.745,4.474,1.263c21.016-6.123,42.023-12.275,63.027-18.44
		c19.893-5.84,39.784-11.688,59.658-17.594C756.958,396.536,759.443,396.892,758.997,393.745z M605.924,442.755
		c-0.014-2.096-0.803-2.913-3.932-1.992c-41.348,12.175-82.736,24.209-124.16,36.122c-2.767,0.795-2.849,2.219-2.526,4.297
		c0.488,3.149,2.414,1.303,3.725,0.928c15.134-4.337,30.257-8.71,45.37-13.117c26.095-7.609,52.179-15.251,78.27-22.871
		C604.162,445.685,606.246,446.021,605.924,442.755z"/>
	<path fill-rule="evenodd" clip-rule="evenodd" fill="#7F98B0" d="M56.001,294.74c2.451,16.181,5.033,32.327,8.511,48.34
		c8.804,40.529,20.002,80.371,33.581,119.551c9.397,27.116,20.243,53.652,31.669,79.976c8.682,20.001,18.678,39.342,28.517,58.758
		c19.816,39.108,42.09,76.797,66.952,112.919c8.641,12.555,17.776,24.769,26.695,37.13c0.975,1.352,1.99,2.667,2.126,4.414
		c-13.982-8.513-24.445-20.778-34.802-33.064c-22.333-26.494-41.059-55.466-58.366-85.43
		c-16.862-29.192-31.785-59.373-45.367-90.165c-15.314-34.719-28.63-70.249-39.534-106.648
		c-10.563-35.258-19.504-70.913-26.47-107.047c-2.637-13.675-4.641-27.471-7.011-41.672
		C47.469,291.879,51.763,293.161,56.001,294.74z"/>
	<path fill-rule="evenodd" clip-rule="evenodd" fill="#7F98B0" d="M278.259,740.203c-1.116-15.028-1.718-30.117-3.467-45.072
		c-2.707-23.15-6.332-46.179-10.924-69.059c-9.989-49.762-23.743-98.5-39.735-146.613c-12.235-36.811-25.609-73.225-40.552-109.033
		c-10.858-26.021-22.128-51.861-34.03-77.435c-9.037-19.418-18.181-38.779-27.568-58.028c-0.5-1.024-0.706-2.191-1.049-3.292
		c1.517-4.423,2.862-4.299,5.332-0.331c17.752,28.525,33.461,58.13,47.943,88.437c22.128,46.31,40.29,94.196,57.19,142.58
		c16.698,47.801,29.645,96.658,39.362,146.337c5.841,29.859,10.077,60.012,10.847,90.449
		C281.953,712.821,281.629,726.704,278.259,740.203z"/>
	<path fill-rule="evenodd" clip-rule="evenodd" fill="#7F98B1" d="M116.849,236.961c4.136,3.451,5.395,8.634,7.603,13.162
		c6.987,14.326,13.635,28.819,20.347,43.279c12.646,27.242,24.742,54.718,35.841,82.637c13.6,34.212,27.358,68.369,38.961,103.319
		c13.367,40.264,25.016,81.022,34.457,122.416c6.997,30.678,12.434,61.612,16.682,92.763c1.156,8.478,1.35,17.087,1.525,25.708
		c-2.06-10.841-4.11-21.684-6.182-32.522c-6.067-31.745-13.966-63.033-22.684-94.154c-10.607-37.861-22.556-75.296-35.055-112.549
		c-13.875-41.353-29.817-81.958-46.138-122.402c-15.209-37.69-31.467-74.938-48.032-112.05c-0.594-1.331-0.924-2.881-2.337-3.72
		C113.383,240.779,114.583,238.417,116.849,236.961z"/>
	<path fill-rule="evenodd" clip-rule="evenodd" fill="#7F98B1" d="M109.047,247.004c5.81,8.961,9.308,19.054,13.624,28.706
		c9.543,21.346,18.551,42.938,27.429,64.573c9.254,22.551,18.539,45.09,27.135,67.908c10.059,26.701,19.763,53.527,29.076,80.492
		c8.931,25.858,17.322,51.888,24.959,78.173c7.122,24.508,14.033,49.063,20.109,73.847c6.069,24.755,11.229,49.708,15.547,74.831
		c0.136,0.79,0.017,1.624-0.417,2.509c-3.124-11.318-6.333-22.613-9.353-33.96c-5.203-19.55-11.273-38.842-17.068-58.217
		c-9.084-30.373-18.82-60.54-29.23-90.477c-18.198-52.333-36.143-104.76-56.36-156.367c-8.953-22.854-17.543-45.85-26.642-68.645
		c-7.672-19.22-15.841-38.241-23.79-57.35C105.508,250.839,106.76,248.493,109.047,247.004z"/>
	<path fill-rule="evenodd" clip-rule="evenodd" fill="#7F98B1" d="M100.667,257.941c2.816,1.591,2.855,4.791,3.852,7.269
		c14.483,36.002,28.996,71.995,43.051,108.166c9.489,24.42,18.367,49.08,27.349,73.695c13.366,36.63,26.36,73.391,38.437,110.473
		c17.304,53.13,34.095,106.41,48.197,160.5c0.243,0.931,0.337,1.899-0.224,3.072c-3.277-9.338-6.524-18.687-9.835-28.012
		c-17.986-50.657-35.663-101.424-54.27-151.862c-12.689-34.396-24.619-69.071-37.271-103.48
		c-14.482-39.385-28.374-78.987-43.551-118.12c-6.536-16.853-12.272-34.016-18.411-51.024c-0.607-1.683-0.749-3.606-2.228-4.904
		C97.265,261.676,98.278,259.225,100.667,257.941z"/>
	<path fill-rule="evenodd" clip-rule="evenodd" fill="#7F98B1" d="M92.716,267.757c5.971,15.816,12.025,31.602,17.895,47.456
		c10.708,28.926,21.367,57.87,31.928,86.85c7.894,21.66,15.559,43.404,23.402,65.083c13.542,37.428,27.193,74.816,40.698,112.258
		c7.541,20.905,14.875,41.885,22.312,62.827c9.27,26.103,18.551,52.2,27.809,78.307c0.155,0.437,0.073,0.957-0.599,1.747
		c-2.531-5.695-5.151-11.353-7.576-17.093c-11.489-27.197-23.004-54.384-34.359-81.637c-13.525-32.461-25.666-65.465-38.333-98.263
		c-18.771-48.602-36.271-97.659-53.002-146.995c-9.595-28.291-19.305-56.542-28.883-84.839c-2.178-6.436-4.027-12.983-6.027-19.479
		C89.138,271.584,90.861,269.62,92.716,267.757z"/>
	<path fill-rule="evenodd" clip-rule="evenodd" fill="#7F98B1" d="M84.812,277.802c2.889,11.955,7.222,23.452,11.098,35.095
		c5.71,17.155,11.269,34.361,17.145,51.459c14.011,40.774,28.514,81.372,43.454,121.819c13.734,37.182,27.522,74.337,42.463,111.051
		c12.627,31.03,24.536,62.355,38.137,92.987c4.781,10.767,9.46,21.578,14.213,32.357c0.41,0.929,0.825,1.783,0.177,3.104
		c-11.096-20.581-21.603-41.146-31.46-62.04c-5.386-11.417-10.718-22.859-15.949-34.348c-10.385-22.805-20.301-45.813-30.017-68.913
		c-15.312-36.402-29.07-73.401-42.619-110.477c-13.048-35.705-24.109-72.079-35.614-108.295
		c-5.465-17.205-9.967-34.715-14.96-52.071c-0.443-1.542-0.448-3.313-1.813-4.504C80.982,282.619,82.897,280.211,84.812,277.802z"/>
	<path fill-rule="evenodd" clip-rule="evenodd" fill="#7F98B1" d="M241.728,718.223c-4.417-3.908-6.745-9.292-9.646-14.192
		c-19.889-33.591-38.11-68.1-55.075-103.237c-13.406-27.768-25.617-56.1-37.169-84.703c-14.038-34.757-26.617-70.04-37.833-105.793
		c-11.696-37.284-22.478-74.836-30.227-113.187c-0.087-0.431-0.56-0.784-0.852-1.174c1.376-2.235,2.753-4.47,4.8-6.185
		c4.444,11.793,7.339,24.051,10.722,36.155c6.117,21.889,13.612,43.336,20.395,65.011c13.227,42.266,28.583,83.787,44.46,125.095
		c10.942,28.468,23.072,56.489,35.058,84.545c12.527,29.325,26.173,58.146,40.31,86.734c5.067,10.247,11.186,19.963,15.448,30.614
		C241.989,718.014,241.859,718.119,241.728,718.223z"/>
	<path fill-rule="evenodd" clip-rule="evenodd" fill="#7F98B1" d="M67.045,297.141c2.059,12.418,5.349,24.555,8.468,36.725
		c8.023,31.31,17.299,62.242,27.218,93.015c13.59,42.16,29.81,83.301,46.948,124.08c14.025,33.373,29.645,66.043,46.856,97.913
		c11.904,22.044,24.003,43.984,37.06,65.379c0.56,0.916,1.498,1.851,0.82,3.606c-4.243-3.16-6.652-7.673-9.244-11.761
		c-9.944-15.679-20.79-30.784-29.811-47.055c-8.287-14.947-17.042-29.641-25.148-44.684c-7.885-14.635-15.534-29.417-22.708-44.41
		c-13.395-27.994-25.629-56.506-36.307-85.657c-14.15-38.633-26.916-77.71-36.484-117.758c-5.421-22.689-10.157-45.53-13.653-68.609
		c-0.099-0.651-0.008-1.331-0.006-1.998C63.05,296.332,65.047,296.736,67.045,297.141z"/>
	<path fill-rule="evenodd" clip-rule="evenodd" fill="#D7DEE7" d="M802.859,538.965c-1.96-6.202-0.247-12.535-0.355-18.911
		c0.324,1.289,0.649,2.578,0.974,3.868C803.271,528.936,803.065,533.95,802.859,538.965z"/>
	<path fill-rule="evenodd" clip-rule="evenodd" fill="#D7DEE7" d="M794.297,412.525c-0.293,0.487-0.587,0.975-0.88,1.463
		c-0.759-1.18-0.476-2.157,0.575-2.988C794.094,411.509,794.195,412.018,794.297,412.525z"/>
	<path fill-rule="evenodd" clip-rule="evenodd" fill="#4A4B4D" d="M616.098,376.901c-0.269-2.107-0.682-4.167-1.98-5.931
		c-2.988-12.967-7.801-25.356-11.912-37.972c-11.283-34.62-24.662-68.417-39.674-101.567c-1.922-4.243-1.255-5.261,3.145-6.354
		c40.275-10.007,80.494-20.236,120.7-30.519c3.608-0.923,5.689-0.525,8.178,2.81c18.946,25.393,28.775,54.751,37.472,84.627
		c4.409,15.151,7.621,30.599,11.019,45.997c0.283,5.07,2.274,9.916,1.985,15.062c-6.712-8.42-11.11-18.292-17.063-27.189
		c-0.81-1.211-1.25-2.646-3.092-2.864c-10.975-1.298-21.939-2.67-32.907-4.017c-2.09-1.265-1.587-5.111-5.02-5.041
		c-2.516-3.1-3.063-6.35-0.665-9.768c2.235-3.188,2.801-6.612,1.528-10.293c-0.818-2.368-0.282-4.277,1.066-6.438
		c3.608-5.78,2.416-11.159-3.046-15.672c-0.984-7.047-1.987-14.092-2.941-21.143c-0.25-1.852-0.635-3.47-2.292-4.733
		c-15.548-11.856-30.444-10.404-43.302,4.674c-1.835,2.152-4.675,4.72-3.771,7.752c2.256,7.56,3.313,15.467,6.525,22.744
		c-1.784,2.544-3.104,5.65-1.959,8.386c3.16,7.551,6.509,15.1,10.692,22.106c1.518,2.541,3.515,4.59,3.564,7.726
		c-0.482,2.901-0.965,5.803-1.447,8.704c-0.929,1.358-1.743,2.755-3.148,3.777c-8.698,6.33-17.343,12.736-26.012,19.107
		c-1.471,1.08-2.653,2.05-2.831,4.271c-0.595,7.445-0.953,14.885-0.936,22.353C617.982,370.734,617.955,374.014,616.098,376.901z"/>
	<path fill-rule="evenodd" clip-rule="evenodd" fill="#040404" d="M475.076,142.848c-1.131-6.44-11.463-14.662-18.349-14.918
		c-2.21-0.082-5.911,1.647-6.264-1.765c-0.233-2.26,3.499-1.951,5.543-2.479c12.325-3.19,24.666-6.318,37.016-9.412
		c1.684-0.422,3.956-1.319,4.574,1.185c0.563,2.282-2.062,1.728-3.159,2.189c-6.346,2.669-7.031,4.408-2.372,9.64
		c4.624,5.192,9.755,9.933,14.663,14.872c8.171,8.583,16.341,17.166,25.556,26.846c-0.865-11.547-1.495-21.535-3.084-31.442
		c-0.401-5.299-0.763-10.601-1.215-15.895c-0.668-7.813-4.21-10.574-11.921-9.05c-1.951,0.386-3.294,0.305-3.884-1.686
		c-0.818-2.76,1.714-1.894,2.778-2.195c6.843-1.94,13.729-3.737,20.621-5.497c1.525-0.39,3.314-1.136,4.24,1.111
		c0.926,2.248-1.104,2.444-2.248,3.103c-3.486,2.01-3.7,5.398-3.45,8.701c0.477,6.289,1.32,12.551,2.012,18.823
		c1.43,15.562,2.854,31.123,4.294,46.683c0.507,5.467,1.146,10.923,1.526,16.397c0.095,1.37,1.259,3.216-1.331,4.114
		c-2.114,0.733-3.305,0.136-4.75-1.305c-9.906-9.877-19.956-19.61-29.837-29.511c-7.51-7.525-14.839-15.229-22.021-22.619
		c-2.403,1.07-1.752,2.415-1.725,3.425c0.535,19.798,1.167,39.593,1.631,59.393c0.04,1.717,1.314,4.123-1.272,5.217
		c-2.545,1.076-3.939-0.851-5.478-2.374c-17.028-16.87-34.071-33.726-51.109-50.585l-0.105-0.14l-0.028-0.061
		c-5.6-5.698-11.09-11.512-16.845-17.048c-3.021-2.906-6.634-4.958-11.172-4.437c-1.35,0.154-2.742,0.071-2.986-1.791
		c-0.251-1.916,1.51-1.624,2.358-1.848c13.13-3.452,26.302-6.748,39.434-10.195c1.783-0.469,2.362,0.236,2.914,1.629
		c0.697,1.758-0.629,1.782-1.673,2.283c-6.33,3.04-6.808,4.646-2.174,10.076c4.737,5.554,9.695,10.942,15.314,15.657
		c8.129,8.531,16.257,17.063,24.386,25.594c0.399-0.241,0.799-0.482,1.198-0.724C475.657,169.503,476.589,156.141,475.076,142.848z"
		/>
	<path fill-rule="evenodd" clip-rule="evenodd" fill="#040404" d="M326.138,195.753c-3.767-7.915-7.525-15.833-11.301-23.744
		c-2.376-4.978-6.792-5.298-11.459-4.907c-1.143,0.096-2.265,0.467-3.39,0.743c-1.866,0.459-2.875-0.495-3.3-2.135
		c-0.612-2.365,1.501-1.669,2.479-1.917c22.267-5.648,44.55-11.23,66.829-16.828c4.65-1.168,9.338-2.211,13.926-3.585
		c2.388-0.716,3.607-0.212,4.643,2.068c3.145,6.927,6.497,13.76,9.73,20.646c0.424,0.903,1.873,1.908,0.311,2.895
		c-1.368,0.863-2.671,0.763-3.786-0.808c-1.14-1.606-2.628-2.962-3.923-4.462c-9.453-10.95-21.582-10.959-34.308-8.33
		c-3.556,0.734-7.101,1.613-10.551,2.734c-3.625,1.178-5.012,3.528-3.085,7.294c3,5.865,5.871,11.797,8.797,17.701
		c1.492,3.296,2.943,6.611,4.502,9.876c0.454,0.951,0.679,2.081,2.281,2.187c5.843,0.388,14.366-6.305,15.334-12.216
		c0.492-3.49,0.446-6.935-0.602-10.352c-0.305-0.99-0.925-2.251,0.946-2.738c1.417-0.368,2.469-0.595,3.249,1.059
		c1.13,2.396,2.463,4.694,3.709,7.034c5.532,11.481,11.064,22.964,16.588,34.428c-2.817,1.497-4.23,0.237-5.759-1.95
		c-6.923-9.912-16.021-14.451-28.376-11.642c-3.669,0.834-3.798,1.701-2.198,4.717c4.665,8.798,9.173,17.686,13.478,26.665
		c2.197,4.583,5.625,6.601,10.411,5.753c18.385-3.257,33.129-10.561,33.896-30.651c0.075-1.967,0.648-3.382,3.027-3.781
		c2.901-0.486,2.366,1.775,2.703,3.089c1.85,7.227,3.346,14.551,5.408,21.714c0.756,2.623-0.101,3.079-2.193,3.604
		c-27.35,6.873-54.686,13.798-82.026,20.705c-1.433,0.361-3.117,1.09-3.916-0.801c-1.064-2.521,1.532-2.047,2.566-2.575
		c7.368-3.766,8.126-5.892,4.434-13.289C338.856,221.22,332.496,208.487,326.138,195.753z"/>
	<path fill-rule="evenodd" clip-rule="evenodd" fill="#040404" d="M283.985,201.005c-2.459-6.337-5.424-12.452-9.042-18.181
		c-2.388-3.781-5.878-6.278-10.806-5.787c-1.978,0.197-3.98,0.146-5.972,0.219c-1.2,0.044-1.813-0.657-2.111-1.694
		c-0.396-1.377,0.634-1.748,1.597-1.983c9.475-2.325,18.975-4.55,28.422-6.98c1.623-0.417,2.183,0.362,2.71,1.346
		c0.858,1.602-0.564,1.771-1.557,2.364c-7.43,4.444-7.808,5.517-4.144,13.373c2.428,5.205,4.575,10.568,7.861,15.339
		c8.001,16.373,16.001,32.746,24.005,49.118c1.095,2.237,2.271,4.438,3.295,6.706c0.5,1.109,2.075,2.354,0.889,3.454
		c-1.015,0.941-2.823,1.09-4.273,0.486c-1.526-0.635-2.933-1.555-4.407-2.32c-26.349-13.686-52.7-27.369-79.059-41.037
		c-0.424-0.22-0.948-0.246-1.425-0.363c-4.818-2.646-9.637-5.291-15.282-8.391c1.43,4.666,3.313,8.021,5.364,11.302
		c6.805,14.015,13.487,28.092,20.475,42.016c2.976,5.928,8.112,8.55,14.843,7.63c1.15-0.157,2.306-0.271,3.458-0.413
		c1.295-0.158,1.773,0.812,2.082,1.717c0.485,1.422-0.75,1.622-1.663,1.854c-9.955,2.53-19.937,4.957-29.86,7.606
		c-1.827,0.487-2.571-0.172-2.958-1.542c-0.514-1.819,1.22-1.539,2.155-1.951c7.36-3.25,8.567-5.384,5.42-12.037
		c-6.659-14.077-13.661-27.993-20.522-41.976c-2.754-5.826-5.587-11.618-8.212-17.502c-0.754-1.691-1.838-2.725-3.473-3.271
		c-4.805-1.603-9.004-4.981-14.349-4.977c-1.381,0.001-1.627-1.006-1.912-1.883c-0.605-1.868,1.183-1.731,2.042-1.946
		c9.143-2.286,18.342-4.348,27.454-6.749c2.173-0.572,3.493,0.478,5.032,1.27c13.666,7.029,27.308,14.105,40.957,21.169
		c11.415,6.105,22.83,12.212,34.245,18.317c0.253-0.33,0.507-0.66,0.761-0.99C292.013,216.546,287.999,208.775,283.985,201.005z"/>
	<path fill-rule="evenodd" clip-rule="evenodd" fill="#040404" d="M553.246,129.932c-2.176-4.273-4.218-8.591-4.292-13.531
		c-0.178-11.754,8.187-20.597,21.479-23.473c8.354-1.809,16.724-2.287,25.197-2.081c2.896,0.069,5.502-0.359,5.336-4.135
		c-0.1-2.27,1.724-2.094,2.98-2.565c1.891-0.71,2.195,1.019,2.717,2.1c4.086,8.477,8.112,16.981,12.157,25.479l0.046-0.036
		c-2.702,1.516-4.597,0.781-6.813-1.447c-9.852-9.906-21.252-16.252-35.896-14.207c-7.534,1.052-12.757,5.087-13.542,10.45
		c-0.764,5.217,3.456,12.213,8.998,14.094c4.191,1.423,8.517,2.636,13.037,2.643c9.776,2.807,20.054,2.562,29.907,4.932
		c11.396,2.741,21.258,7.612,26.724,18.764c5.704,11.637,0.745,25.321-11.022,31.21c-11.32,5.664-23.228,7.632-35.761,6.739
		c-3.573-0.254-7.738-0.999-7.771,4.851c-0.011,1.851-2.038,1.365-3.132,1.861c-1.657,0.751-1.856-0.99-2.303-1.885
		c-4.44-8.914-8.845-17.846-13.15-26.825c-0.418-0.872-2.35-2.152,0.019-3.145c1.591-0.667,2.833-0.977,4.286,0.807
		c4.007,4.917,8.93,8.896,14.057,12.626c9.714,7.065,26.818,8.17,36.46,2.286c6.447-3.935,7.836-12.074,3.087-18.048
		c-3.533-4.443-8.517-6.144-13.779-7.334c-11.994-2.714-24.439-2.668-36.334-6.018C566.993,141.522,558.721,137.995,553.246,129.932
		z"/>
	<path fill-rule="evenodd" clip-rule="evenodd" fill="#FCFDFD" d="M584.65,123.221c-4.521-0.007-8.846-1.22-13.037-2.643
		c-5.542-1.881-9.762-8.877-8.998-14.094c0.785-5.363,6.008-9.398,13.542-10.45c14.644-2.045,26.044,4.301,35.896,14.207
		c2.217,2.229,4.111,2.963,6.813,1.447c-0.283,1.552-1.315,2.168-2.791,2.284c-10.086,0.799-19.397,4.921-29.221,6.734
		C584.645,121.115,585.636,122.675,584.65,123.221z"/>
	<path fill-rule="evenodd" clip-rule="evenodd" fill="#070707" d="M437.194,361.272c38.417-10.779,76.575-21.486,114.734-32.193
		c4.151-1.165,8.385-2.104,12.427-3.572c2.785-1.012,3.93-0.122,4.761,2.375c1.092,3.281-1.775,2.618-3.105,2.995
		c-39.113,11.083-78.249,22.081-117.384,33.087c-1.436,0.403-2.994,0.527-4.312,1.163
		C440.421,367.005,438.093,365.983,437.194,361.272z"/>
	<path fill-rule="evenodd" clip-rule="evenodd" fill="#070707" d="M421.682,320.443c-1.758-0.211-1.98-2.552-2.427-3.909
		c-0.669-2.033,1.671-1.465,2.734-1.762c38.021-10.602,76.056-21.154,114.089-31.712c3.516-0.977,7.071-1.827,10.539-2.951
		c2.762-0.896,3.88,0.307,4.697,2.729c1.089,3.225-1.816,2.249-2.834,2.534c-41.379,11.572-82.79,23.029-124.199,34.496
		C423.641,320.046,422.982,320.158,421.682,320.443z"/>
	<path fill-rule="evenodd" clip-rule="evenodd" fill="#070707" d="M448.331,389.418c-2.11,0.339-1.562-2.229-2.063-3.397
		c-1.043-2.429,1.504-2.098,2.641-2.431c14.466-4.24,28.952-8.411,43.453-12.531c26.483-7.525,52.978-15.013,79.478-22.483
		c1.456-0.41,2.921-1.763,4.51,0.04c2.327,2.64,1.657,4.098-2.57,5.296c-33.001,9.355-66.002,18.71-99.001,28.073
		c-7.65,2.171-15.29,4.378-22.938,6.558C450.882,388.815,449.907,389.026,448.331,389.418z"/>
	<path fill-rule="evenodd" clip-rule="evenodd" fill="#070707" d="M391.257,329.505c0.379,2.305-1.789,1.889-2.881,2.195
		c-19.97,5.604-39.971,11.101-59.963,16.63c-21.278,5.886-42.544,11.815-63.852,17.592c-1.259,0.341-2.92,2.241-4.326-0.135
		c-1.575-2.661-1.792-4.06,2.027-5.095c34.759-9.422,69.453-19.083,104.166-28.675c6.876-1.9,13.791-3.677,20.61-5.763
		C390.263,325.268,390.8,327.071,391.257,329.505z"/>
	<path fill-rule="evenodd" clip-rule="evenodd" fill="#070707" d="M287.294,435.797c-1.298-0.253-0.986-1.995-1.461-3.256
		c-0.934-2.478,1.033-2.229,2.352-2.604c11.961-3.404,23.918-6.818,35.884-10.204c29.352-8.306,58.707-16.599,88.062-24.894
		c1.37-0.387,2.717-1.594,4.179-0.325c1.996,1.731,1.255,4.424-1.51,5.215c-14.822,4.24-29.658,8.431-44.489,12.641
		c-26.159,7.424-52.317,14.852-78.478,22.271C290.561,435,289.272,435.295,287.294,435.797z"/>
	<path fill-rule="evenodd" clip-rule="evenodd" fill="#070707" d="M409.222,374.966c-0.245,2.312-2.351,1.917-3.75,2.314
		c-20.437,5.8-40.888,11.546-61.342,17.285c-20.453,5.739-40.903,11.49-61.389,17.114c-1.61,0.442-3.924,2.568-5.018-1.306
		c-0.681-2.41-0.451-2.912,1.965-3.582c41.898-11.608,83.776-23.287,125.604-35.146
		C409.099,370.567,408.421,373.158,409.222,374.966z"/>
	<path fill-rule="evenodd" clip-rule="evenodd" fill="#070707" d="M422.515,417.116c2.383-0.183,2.07,1.704,2.572,2.988
		c0.914,2.339-1.029,2.413-2.276,2.766c-11.001,3.11-22.028,6.128-33.038,9.205c-30.17,8.433-60.333,16.888-90.51,25.297
		c-1.611,0.449-3.603,2.025-4.907-0.045c-1.542-2.449-1.265-4.035,2.307-5.015c35.166-9.65,70.266-19.535,105.381-29.368
		C408.908,421.022,415.756,419.042,422.515,417.116z"/>
	<path fill-rule="evenodd" clip-rule="evenodd" fill="#070707" d="M372.133,285.53c-0.071,1.131-1.759,0.929-2.848,1.222
		c-29.139,7.835-58.293,15.616-87.445,23.406c-12.653,3.381-25.348,6.614-37.926,10.253c-2.924,0.846-4.042-0.02-4.745-2.396
		c-0.865-2.924,1.897-2.285,3.08-2.609c41.398-11.353,82.837-22.554,124.221-33.959C370.098,280.447,371.321,281.79,372.133,285.53z
		"/>
	<path fill-rule="evenodd" clip-rule="evenodd" fill="#070707" d="M532.06,239.079c-0.917,1.565-2.955,1.406-4.5,1.828
		c-19.506,5.323-39.044,10.525-58.571,15.767c-21.3,5.717-42.587,11.478-63.915,17.084c-1.392,0.366-3.081,1.967-4.551,0.248
		c-0.717-0.839-1.502-2.149-1.343-3.093c0.292-1.732,2.246-1.542,3.563-1.901c31.798-8.685,63.608-17.324,95.414-25.983
		c9.436-2.568,18.895-5.061,28.277-7.81C529.928,234.195,531.359,235.592,532.06,239.079z"/>
	<path fill-rule="evenodd" clip-rule="evenodd" fill="#070707" d="M412.219,297.837c-1.86-0.323-1.939-2.216-2.424-3.668
		c-0.712-2.136,1.162-1.815,2.289-2.123c24.462-6.697,48.929-13.378,73.388-20.084c16.623-4.559,33.234-9.155,49.855-13.72
		c0.797-0.219,1.744-0.095,2.433-0.473c2.477-1.362,3.338,0.354,4.013,2.092c1.043,2.688-1.474,2.579-2.781,2.944
		c-22.987,6.408-46,12.723-69.004,19.069c-17.736,4.894-35.469,9.805-53.203,14.707
		C415.349,296.979,413.912,297.371,412.219,297.837z"/>
	<path fill-rule="evenodd" clip-rule="evenodd" fill="#070707" d="M400.775,352.886c-0.309,1.811-2.307,1.228-3.536,1.571
		c-23.482,6.573-46.997,13.028-70.497,19.537c-17.743,4.914-35.5,9.782-53.187,14.893c-3.023,0.874-4.498-0.115-5.09-2.627
		c-0.605-2.567,1.852-2.031,3.213-2.413c41.048-11.499,82.103-22.976,123.156-34.456
		C398.441,348.383,401.063,349.761,400.775,352.886z"/>
	<path fill-rule="evenodd" clip-rule="evenodd" fill="#070707" d="M432.44,342.813c-2.903,0.721-3.006-1.082-3.482-2.428
		c-0.882-2.493,1.131-2.14,2.469-2.517c32.889-9.267,65.772-18.553,98.662-27.819c8.777-2.473,17.63-4.701,26.325-7.435
		c3.134-0.984,3.044,0.784,3.91,2.64c1.466,3.137-1.148,2.424-2.394,2.769c-41.409,11.479-82.83,22.917-124.248,34.366
		C433.045,342.565,432.428,342.817,432.44,342.813z"/>
	<path fill-rule="evenodd" clip-rule="evenodd" fill="#070707" d="M379.279,303.486c1.983,0.091,2.529,1.996,2.746,3.422
		c0.332,2.189-1.877,1.784-3.164,2.136c-26.89,7.343-53.787,14.656-80.682,21.982c-14.248,3.882-28.484,7.805-42.744,11.641
		c-2.306,0.62-5.387,2.479-5.991-1.905c-0.457-3.319,2.57-2.461,4.302-2.937c40.646-11.146,81.302-22.257,121.956-33.375
		C376.824,304.144,377.949,303.845,379.279,303.486z"/>
	<path fill-rule="evenodd" clip-rule="evenodd" fill="#070707" d="M456.816,412.326c-2.474,0.678-2.037-1.602-2.539-2.69
		c-0.933-2.024,0.963-2.065,2.113-2.406c7.955-2.356,15.916-4.693,23.893-6.978c33.185-9.504,66.374-18.995,99.571-28.456
		c1.833-0.522,4.118-2.497,5.097,1.206c0.864,3.273-1.556,3.422-3.582,3.998c-40.551,11.538-81.102,23.075-121.654,34.607
		C458.758,411.879,457.783,412.088,456.816,412.326z"/>
	<path fill-rule="evenodd" clip-rule="evenodd" fill="#FCFDFD" d="M220.051,217.975c-2.051-3.28-3.934-6.636-5.364-11.302
		c5.646,3.1,10.464,5.745,15.282,8.391C226.682,216.099,222.987,215.742,220.051,217.975z"/>
	<path fill-rule="evenodd" clip-rule="evenodd" fill="#FCFDFD" d="M425.957,163.674l0.105,0.14
		c-0.201,0.145-0.402,0.288-0.604,0.432C425.625,164.055,425.791,163.864,425.957,163.674z"/>
	<path fill-rule="evenodd" clip-rule="evenodd" fill="#070707" d="M457.47,535.141c0.546,3.831-1.613,3.488-3.07,3.926
		c-26.535,7.97-53.072,15.931-79.608,23.896c-14.142,4.244-28.254,8.589-42.469,12.57c-1.222,0.343-3.823,3.521-5.096-0.692
		c-1.058-3.504,1.229-3.848,3.479-4.524c40.514-12.187,81.029-24.367,121.531-36.592
		C454.979,532.897,457.711,531.553,457.47,535.141z"/>
	<path fill-rule="evenodd" clip-rule="evenodd" fill="#070707" d="M489.116,530.171c-2.553,0.488-1.736-1.39-2.188-2.45
		c-1.001-2.35,0.503-2.703,2.161-3.197c13.361-3.983,26.716-7.992,40.067-12.007c27.65-8.316,55.286-16.681,82.98-24.846
		c1.384-0.408,3.46-2.906,5.009,0.2c1.515,3.038,0.313,4.274-2.685,5.15c-25.175,7.354-50.32,14.809-75.467,22.259
		c-15.753,4.668-31.493,9.381-47.238,14.076C490.801,529.641,489.851,529.943,489.116,530.171z"/>
	<path fill-rule="evenodd" clip-rule="evenodd" fill="#070707" d="M656.739,579.043c-1.747-4.364-0.207-5.938,3.893-7.181
		c40.499-12.282,80.918-24.824,121.383-37.217c1.366-0.418,3.428-2.812,4.372,0.333c0.656,2.188,0.693,4.095-2.628,5.104
		C741.495,552.913,699.295,565.953,656.739,579.043z"/>
	<path fill-rule="evenodd" clip-rule="evenodd" fill="#070707" d="M343.416,674.448c-1.482-4.197,0.103-5.776,4.167-7.011
		c40.485-12.302,80.889-24.875,121.361-37.22c1.186-0.361,3.579-3.074,4.534,0.829c0.693,2.832-0.496,3.823-2.955,4.575
		c-41.448,12.687-82.879,25.432-124.316,38.154C345.286,674.06,344.33,674.23,343.416,674.448z"/>
	<path fill-rule="evenodd" clip-rule="evenodd" fill="#070707" d="M783.864,512.186c0.767,3.194-1.792,3.065-3.277,3.52
		c-25.532,7.819-51.093,15.549-76.647,23.293c-15.401,4.667-30.797,9.354-46.223,13.941c-1.367,0.406-3.222,2.558-4.271-0.783
		c-0.975-3.101,0.753-3.537,3.037-4.234c22.674-6.925,45.318-13.946,67.975-20.926c18.538-5.712,37.11-11.313,55.595-17.194
		C783.186,508.805,783.995,509.596,783.864,512.186z"/>
	<path fill-rule="evenodd" clip-rule="evenodd" fill="#070707" d="M624.638,534.738c1.735-0.682,1.997,0.341,2.258,1.639
		c0.429,2.125-0.029,3.239-2.4,3.93c-10.348,3.016-20.612,6.313-30.923,9.453c-30.921,9.418-61.845,18.83-92.798,28.139
		c-1.187,0.357-3.05,2.854-4.13-0.728c-0.924-3.063,0.062-3.977,2.81-4.803c40.961-12.309,81.894-24.713,122.836-37.085
		C623.083,535.043,623.907,534.905,624.638,534.738z"/>
	<path fill-rule="evenodd" clip-rule="evenodd" fill="#070707" d="M500.066,600.209c-0.637-3.237,1.986-2.986,3.723-3.521
		c19.97-6.146,39.945-12.276,59.933-18.365c20.622-6.283,41.249-12.553,61.911-18.701c1.493-0.444,3.658-2.687,4.916,0.485
		c1.369,3.455-1.397,3.832-3.556,4.5c-41.025,12.697-82.059,25.37-123.085,38.065C501.509,603.415,499.47,603.814,500.066,600.209z"
		/>
	<path fill-rule="evenodd" clip-rule="evenodd" fill="#070707" d="M321.142,549.757c-0.578-2.949,1.87-2.6,3.443-3.067
		c33.519-9.969,67.042-19.917,100.57-29.852c8.579-2.542,17.177-5.021,25.767-7.529c2.514,4.126,0.936,5.573-3.426,6.841
		c-40.532,11.776-80.998,23.78-121.455,35.814C323.443,552.737,321.805,552.664,321.142,549.757z"/>
	<path fill-rule="evenodd" clip-rule="evenodd" fill="#070707" d="M338.504,625.013c-2.231,0.047-1.535-1.841-1.966-2.89
		c-0.919-2.238,0.475-2.711,2.351-3.259c11.15-3.254,22.254-6.666,33.377-10.011c30.184-9.073,60.366-18.146,90.561-27.183
		c1.35-0.404,3.104-2.147,4.046,0.505c0.895,2.515-0.148,3.863-2.717,4.639c-41.297,12.459-82.575,24.981-123.854,37.498
		C339.668,624.504,339.064,624.792,338.504,625.013z"/>
	<path fill-rule="evenodd" clip-rule="evenodd" fill="#070707" d="M342.566,649.194c-2.203,0.761-2.049-0.641-2.309-1.752
		c-0.462-1.983-0.372-3.357,2.084-4.067c8.599-2.485,17.131-5.197,25.696-7.801c32.669-9.931,65.339-19.863,98.022-29.748
		c1.482-0.448,3.445-2.507,4.521,0.369c1.087,2.904-0.809,3.934-3.313,4.701c-41.208,12.641-82.396,25.342-123.591,38.024
		C343.203,649.067,342.711,649.159,342.566,649.194z"/>
	<path fill-rule="evenodd" clip-rule="evenodd" fill="#070707" d="M475.118,659.021c-18.476,6.729-37.437,11.934-56.158,17.889
		c-24.614,7.831-49.297,15.449-73.95,23.158c-2.164-3.865-0.804-5.797,3.272-7.057c41.786-12.907,83.536-25.929,125.301-38.904
		c0.29-0.09,0.642,0.021,1.189,0.049C474.887,655.761,475.002,657.391,475.118,659.021z"/>
	<path fill-rule="evenodd" clip-rule="evenodd" fill="#070707" d="M787.788,558.072c1.143,3.986,0.104,6.022-4.337,7.381
		c-40.285,12.324-80.481,24.94-120.701,37.479c-1.26,0.393-2.493,0.869-3.738,1.308c-0.351-0.037-0.701-0.073-1.052-0.11
		c0,0-0.092-0.091-0.093-0.091c-0.744-3.823,0.6-5.713,4.591-6.937c40.409-12.386,80.747-25.003,121.104-37.563
		C784.984,559.097,786.38,558.563,787.788,558.072z"/>
	<path fill-rule="evenodd" clip-rule="evenodd" fill="#070707" d="M503.105,625.408c-0.762-2.647,0.866-3.022,2.822-3.622
		c29.816-9.147,59.604-18.386,89.402-27.597c11.091-3.428,22.174-6.885,33.301-10.193c1.38-0.41,3.477-2.569,4.413,0.284
		c0.743,2.265,0.406,4.021-2.876,5.003c-21.935,6.563-43.751,13.518-65.625,20.284c-19.338,5.982-38.706,11.867-58.045,17.848
		C504.361,628.075,502.364,629.023,503.105,625.408z"/>
	<path fill-rule="evenodd" clip-rule="evenodd" fill="#070707" d="M482.668,506.391c-1.2,0.191-1.169-1.091-1.428-2.218
		c-0.412-1.797-0.398-2.91,1.944-3.521c6.26-1.632,12.408-3.69,18.618-5.52c35.012-10.313,70.023-20.629,105.065-30.837
		c1.523-0.443,3.822-2.48,4.958,0.716c0.983,2.764-0.518,3.576-3.018,4.309c-41.239,12.093-82.444,24.299-123.659,36.475
		C484.512,505.983,483.855,506.108,482.668,506.391z"/>
	<path fill-rule="evenodd" clip-rule="evenodd" fill="#070707" d="M775.964,464.362c0.104,2.375-1.832,2.323-3.367,2.784
		c-23.372,7.027-46.745,14.057-70.114,21.096c-17.646,5.315-35.285,10.652-52.933,15.964c-1.571,0.473-3.352,2.15-4.269-1.01
		c-0.756-2.604,0.335-3.457,2.607-4.138c41.508-12.42,83.009-24.862,124.47-37.437C775.467,460.68,775.793,462.066,775.964,464.362z
		"/>
	<path fill-rule="evenodd" clip-rule="evenodd" fill="#070707" d="M634.763,608.077c0.271,2.776,0.933,4.983-3.25,6.26
		c-41.497,12.667-82.893,25.668-124.318,38.566c-0.772,0.24-1.576,0.38-2.445,0.586c-0.259-1.633-0.486-3.066-0.714-4.499
		c7.937-4.289,16.8-5.926,25.271-8.62c33.486-10.649,67.074-20.979,100.625-31.424C631.504,608.457,633.025,607.658,634.763,608.077
		z"/>
	<path fill-rule="evenodd" clip-rule="evenodd" fill="#070707" d="M765.104,416.627c0.398,4.225-2.549,3.634-4.064,4.084
		c-18.757,5.581-37.571,10.969-56.368,16.418c-21.977,6.369-43.945,12.763-65.932,19.098c-1.465,0.423-3.215,2.245-4.207-1.046
		c-0.938-3.116,0.623-3.556,2.916-4.22c41.251-11.943,82.497-23.906,123.704-36C764.113,414.092,765.262,414.534,765.104,416.627z"
		/>
	<path fill-rule="evenodd" clip-rule="evenodd" fill="#070707" d="M770.962,442.536c-0.031,1.351-2.134,1.082-3.564,1.506
		c-27.229,8.052-54.47,16.064-81.71,24.08c-13.704,4.032-27.405,8.075-41.126,12.049c-1.481,0.43-3.392,2.265-4.384-0.771
		c-0.94-2.875,0.691-3.668,3.061-4.363c41.1-12.055,82.195-24.125,123.241-36.36C769.678,437.723,770.826,438.3,770.962,442.536z"/>
	<path fill-rule="evenodd" clip-rule="evenodd" fill="#070707" d="M622.436,513.117c0.413,3.837-2.588,3.158-4.059,3.609
		c-25.544,7.844-51.139,15.519-76.722,23.234c-14.935,4.504-29.854,9.061-44.82,13.458c-1.488,0.438-3.688,2.479-4.734-1.006
		c-0.938-3.123,1.018-3.52,3.17-4.166c41.013-12.313,82.018-24.651,123.017-37.01C620.655,510.523,623.06,509.416,622.436,513.117z"
		/>
	<path fill-rule="evenodd" clip-rule="evenodd" fill="#070707" d="M462.779,559.473c0.296,3.524-2.17,2.919-3.405,3.298
		c-20.931,6.42-41.899,12.714-62.866,19.016c-19.856,5.969-39.704,11.966-59.611,17.759c-1.342,0.39-3.637,3.239-4.785-0.306
		c-0.911-2.812,0.655-3.897,3.355-4.7c27.345-8.139,54.645-16.429,81.954-24.688c13.649-4.129,27.315-8.21,40.921-12.479
		C461.409,556.408,462.793,557.038,462.779,559.473z"/>
	<path fill-rule="evenodd" clip-rule="evenodd" fill="#070707" d="M651.197,529.414c-1.97,0.201-1.08-1.811-1.553-2.783
		c-1.108-2.283,0.802-2.343,2.192-2.77c10.146-3.117,20.282-6.263,30.433-9.364c31.084-9.498,62.167-19.003,93.282-28.397
		c1.302-0.393,3.378-2.676,4.374,0.425c0.882,2.746-0.287,3.867-3.195,4.745c-40.648,12.278-81.238,24.752-121.845,37.171
		C653.776,528.779,652.642,529.035,651.197,529.414z"/>
	<path fill-rule="evenodd" clip-rule="evenodd" fill="#7F98B0" d="M616.098,376.901c1.857-2.888,1.885-6.167,1.878-9.405
		c-0.018-7.468,0.341-14.907,0.936-22.353c0.178-2.221,1.36-3.19,2.831-4.271c8.669-6.371,17.313-12.777,26.012-19.107
		c1.405-1.022,2.22-2.419,3.148-3.778c0.449,1.052,0.699,2.258,1.377,3.133c8.5,10.961,17.063,21.874,25.609,32.8
		c0.418,3.667,0.836,7.334,1.254,11.001c-16.898,6.174-34.338,10.609-51.468,16.039c-0.945,0.3-1.878,0.636-2.82,0.943
		C617.811,384.206,617.81,384.205,616.098,376.901z"/>
	<path fill-rule="evenodd" clip-rule="evenodd" fill="#7F98B0" d="M691.968,308.984c10.968,1.347,21.933,2.719,32.907,4.017
		c1.842,0.218,2.282,1.653,3.092,2.864c5.952,8.897,10.351,18.77,17.063,27.189c0.396,2.52-1.473,2.994-3.224,3.509
		c-17.341,5.096-34.687,10.176-52.031,15.261c0.455-3.941-2.932-6.875-2.815-10.729c0.187-1.956,0.327-3.919,0.564-5.87
		C688.993,333.144,690.484,321.064,691.968,308.984z"/>
	<path fill-rule="evenodd" clip-rule="evenodd" fill="#070707" d="M310.638,505.497c-2.236,0.156-1.902-2.188-2.368-3.461
		c-0.911-2.489,1.596-2.052,2.734-2.387c16.074-4.729,32.181-9.348,48.273-14.016c25.022-7.26,50.046-14.516,75.049-21.843
		c2.318-0.679,4.132-1.88,5.137,1.842c1.009,3.736-1.965,2.879-3.32,3.276c-40.748,11.958-81.529,23.807-122.305,35.671
		C312.88,504.859,311.92,505.13,310.638,505.497z"/>
	<path fill-rule="evenodd" clip-rule="evenodd" fill="#070707" d="M752.501,370.053c0.431,3.744-1.996,3.357-3.228,3.725
		c-13.034,3.891-26.124,7.592-39.188,11.381c-27.874,8.083-55.734,16.217-83.64,24.194c-1.305,0.373-3.362,2.986-4.611-0.88
		c-1.225-3.79,1.406-3.746,3.366-4.316c40.934-11.934,81.886-23.805,122.826-35.719C750.635,367.679,752.9,367.131,752.501,370.053z
		"/>
	<path fill-rule="evenodd" clip-rule="evenodd" fill="#070707" d="M368.049,507.21c6.109,0.092,11.635-2.406,17.331-4.042
		c18.654-5.358,37.265-10.867,55.865-16.408c2.058-0.613,3.621-1.467,4.576,1.496c0.959,2.978-0.784,3.218-2.857,3.825
		c-40.743,11.935-81.49,23.854-122.169,36.002c-4.509,1.347-6.179,0.419-6.066-4.113c1.736-0.602,3.474-1.202,5.21-1.804
		c1.172-0.071,2.372-0.053,3.248-1.044c0,0-0.121,0.096-0.121,0.095c9.181-2.202,18.318-4.546,27.094-8.101l-0.109,0.072
		c3.138-0.145,6.034-1.216,8.924-2.315C361.999,509.652,365.023,508.431,368.049,507.21z"/>
	<path fill-rule="evenodd" clip-rule="evenodd" fill="#070707" d="M471.514,459.028c-2.106,0.453-2.173-0.71-2.453-1.925
		c-0.44-1.914-0.122-3.01,2.025-3.604c7.046-1.949,14.025-4.135,21.052-6.155c34.294-9.858,68.596-19.689,102.891-29.545
		c1.666-0.479,3.37-1.951,4.177,1.176c0.676,2.617-0.315,3.408-2.692,4.089c-41.013,11.733-81.998,23.559-122.989,35.365
		C472.725,458.66,471.93,458.904,471.514,459.028z"/>
	<path fill-rule="evenodd" clip-rule="evenodd" fill="#070707" d="M303.792,481.865c-2.313,0.54-1.726-1.384-2.228-2.426
		c-1.124-2.336,0.438-2.828,2.138-3.313c10.365-2.957,20.722-5.944,31.091-8.888c30.797-8.74,61.591-17.489,92.418-26.123
		c1.396-0.391,3.253-2.231,4.51-0.354c1.501,2.243,1.717,4.055-2.043,5.1c-25.765,7.163-51.445,14.624-77.156,21.978
		c-15.479,4.427-30.962,8.832-46.441,13.255C305.283,481.32,304.508,481.622,303.792,481.865z"/>
	<path fill-rule="evenodd" clip-rule="evenodd" fill="#070707" d="M592.393,395.976c0.464,3.692-2.045,3.15-3.288,3.521
		c-17.967,5.336-35.979,10.517-53.977,15.753c-22.926,6.67-45.856,13.325-68.757,20.084c-2.352,0.694-3.76,1.268-4.774-1.933
		c-1.061-3.346,1.438-2.785,2.776-3.171c41.094-11.855,82.208-23.638,123.315-35.443
		C589.919,394.146,592.44,392.668,592.393,395.976z"/>
	<path fill-rule="evenodd" clip-rule="evenodd" fill="#070707" d="M686.959,351.096c-0.116,3.854,3.271,6.787,2.815,10.729
		c-3.722,0.42-6.826,2.962-10.632,3.097c-0.418-3.667-0.836-7.334-1.254-11.001c-0.319-3.8-0.343-7.654-1.025-11.389
		c-1.126-6.162-0.495-12.591-2.855-18.553c0.97-0.353-0.949-3.722,2.045-1.958C678.59,332.124,682.683,341.645,686.959,351.096z"/>
	<path fill-rule="evenodd" clip-rule="evenodd" fill="#CAD5E0" d="M350.159,513.116c-8.775,3.555-17.913,5.898-27.094,8.101
		c2.492-3.249,6.481-3.124,9.86-3.941C338.666,515.885,343.97,512.599,350.159,513.116z"/>
	<path fill-rule="evenodd" clip-rule="evenodd" fill="#D7DEE7" d="M358.974,510.873c-2.89,1.1-5.786,2.171-8.924,2.315
		C352.646,510.96,355.335,509.086,358.974,510.873z"/>
	<path fill-rule="evenodd" clip-rule="evenodd" fill="#CAD5E0" d="M323.187,521.122c-0.876,0.991-2.076,0.973-3.248,1.044
		C320.675,520.742,321.985,521.101,323.187,521.122z"/>
	<path fill-rule="evenodd" clip-rule="evenodd" fill="#D7DEE7" d="M475.076,142.848c1.513,13.293,0.581,26.655,1.607,39.963
		c-0.399,0.241-0.799,0.482-1.198,0.724c-8.129-8.531-16.257-17.063-24.386-25.594c4.822-4.011,20.562-7.466,23.977-4.602
		C475.076,149.501,475.076,146.175,475.076,142.848z"/>
	<path fill-rule="evenodd" clip-rule="evenodd" fill="#D7DEE7" d="M529.2,137.563c1.589,9.907,2.219,19.896,3.084,31.442
		c-9.215-9.68-17.385-18.263-25.556-26.846c6.128-1.716,12.251-3.45,18.388-5.132c1.416-0.389,2.939-0.867,3.03,1.597
		c0.026,0.718,0.556,0.322,0.741-0.129C529.013,138.192,529.098,137.874,529.2,137.563z"/>
	<path fill-rule="evenodd" clip-rule="evenodd" fill="#D7DEE7" d="M283.985,201.005c4.014,7.771,8.028,15.541,12.042,23.313
		c-0.253,0.33-0.507,0.66-0.761,0.99c-11.415-6.105-22.83-12.212-34.245-18.317C268.546,204.499,276.052,201.931,283.985,201.005z"
		/>
	<path fill-rule="evenodd" clip-rule="evenodd" fill="#D7DFE7" d="M369.868,182.966c-0.968,5.911-9.491,12.604-15.334,12.216
		c-1.603-0.105-1.827-1.235-2.281-2.187c-1.559-3.265-3.01-6.58-4.502-9.876c5.354-0.273,10.433-2.012,15.476-3.495
		C367.109,178.481,369.222,178.689,369.868,182.966z"/>
	<path fill-rule="evenodd" clip-rule="evenodd" fill="#7F98B1" d="M242.117,717.906c1.284,1.584,2.224,3.319,2.96,6.198
		c-2.496-1.956-3.072-3.839-3.345-5.886C241.859,718.119,241.989,718.014,242.117,717.906z"/>
	<path fill-rule="evenodd" clip-rule="evenodd" fill="#7F98B1" d="M236.727,721.223c-0.852-0.203-1.597-0.53-1.32-1.607
		c0.043-0.168,0.73-0.369,0.775-0.307c0.358,0.499,0.635,1.058,0.936,1.599C236.989,721.015,236.858,721.119,236.727,721.223z"/>
	<path fill-rule="evenodd" clip-rule="evenodd" fill="#7F98B1" d="M237.118,720.907c0.752,0.528,0.971,1.272,0.822,2.138
		c-0.021,0.118-0.246,0.2-0.376,0.3c-0.276-0.71-0.552-1.419-0.832-2.126C236.858,721.119,236.989,721.015,237.118,720.907z"/>
	<path fill-rule="evenodd" clip-rule="evenodd" fill="#B6C5D2" d="M657.96,604.13c0.351,0.037,0.701,0.073,1.052,0.11
		C658.588,604.9,658.236,604.881,657.96,604.13z"/>
	<path fill-rule="evenodd" clip-rule="evenodd" fill="#070707" d="M758.997,393.745c0.446,3.146-2.039,2.791-3.567,3.245
		c-19.874,5.905-39.766,11.754-59.658,17.594c-21.004,6.165-42.012,12.317-63.027,18.44c-1.654,0.482-3.657,2.354-4.474-1.263
		c-0.647-2.866,0.784-3.217,2.964-3.855c41.203-12.057,82.388-24.178,123.549-36.377
		C757.434,390.744,759.014,390.71,758.997,393.745z"/>
	<path fill-rule="evenodd" clip-rule="evenodd" fill="#070707" d="M605.924,442.755c0.322,3.267-1.762,2.93-3.254,3.366
		c-26.091,7.62-52.175,15.262-78.27,22.871c-15.113,4.407-30.236,8.78-45.37,13.117c-1.311,0.375-3.236,2.222-3.725-0.928
		c-0.322-2.078-0.24-3.502,2.526-4.297c41.424-11.913,82.813-23.947,124.16-36.122C605.121,439.842,605.91,440.659,605.924,442.755z
		"/>
	<path fill-rule="evenodd" clip-rule="evenodd" fill="#7F98B0" d="M676.053,322.021c-2.994-1.764-1.075,1.605-2.045,1.958
		c-7.219-4.898-14.439-9.796-21.658-14.694c-0.05-3.136-2.047-5.185-3.564-7.726c-4.184-7.007-7.532-14.556-10.692-22.106
		c-1.146-2.735,0.175-5.842,1.959-8.386c1.736-5.821,0.506-11.775,0.706-17.662c0.103-2.99,0.852-4.43,4.081-4.899
		c9.187-1.335,18.173-3.692,27.059-6.345c2.874-0.858,4.188-0.176,5.261,2.541c2.06,5.224,4.494,10.299,6.641,15.49
		c0.441,1.067,0.793,1.766,2.033,1.581c5.462,4.513,6.654,9.892,3.046,15.672c-1.349,2.161-1.885,4.07-1.066,6.438
		c1.272,3.681,0.707,7.105-1.528,10.293c-2.397,3.418-1.851,6.668,0.665,9.768C683.388,310.013,680.647,316.575,676.053,322.021z"/>
	<path fill-rule="evenodd" clip-rule="evenodd" fill="#040404" d="M685.832,261.772c-1.24,0.185-1.592-0.514-2.033-1.581
		c-2.146-5.191-4.581-10.267-6.641-15.49c-1.072-2.717-2.387-3.399-5.261-2.541c-8.886,2.652-17.872,5.01-27.059,6.345
		c-3.229,0.47-3.979,1.909-4.081,4.899c-0.2,5.887,1.03,11.841-0.706,17.662c-3.212-7.277-4.27-15.185-6.525-22.744
		c-0.904-3.032,1.936-5.6,3.771-7.752c12.857-15.078,27.754-16.53,43.302-4.674c1.657,1.264,2.042,2.882,2.292,4.733
		C683.845,247.681,684.848,254.726,685.832,261.772z"/>
	<path fill-rule="evenodd" clip-rule="evenodd" fill="#FCFDFD" d="M652.35,309.284c7.219,4.898,14.439,9.796,21.658,14.694
		c2.36,5.962,1.729,12.391,2.855,18.553c0.683,3.734,0.706,7.589,1.025,11.389c-8.547-10.926-17.109-21.839-25.609-32.8
		c-0.678-0.875-0.928-2.081-1.377-3.133C651.385,315.087,651.867,312.186,652.35,309.284z"/>
	<path fill-rule="evenodd" clip-rule="evenodd" fill="#FCFDFD" d="M676.053,322.021c4.595-5.445,7.335-12.008,10.896-18.077
		c3.433-0.07,2.93,3.776,5.02,5.041c-1.483,12.08-2.975,24.159-4.444,36.241c-0.237,1.951-0.378,3.914-0.564,5.87
		C682.683,341.645,678.59,332.124,676.053,322.021z"/>
</g>
</svg>
